/* XPM */
static char *e713cc0ba16b49fec44af8b9d480656d0ZaTsWqehmXkT0Wl[] = {
/* columns rows colors chars-per-pixel */
"100 100 18 1 ",
"  c black",
". c #010101",
"X c #020001",
"o c #000002",
"O c #010002",
"+ c #000103",
"@ c #010103",
"# c #020003",
"$ c #020202",
"% c #010005",
"& c #030104",
"* c #020005",
"= c #010204",
"- c #020204",
"; c #030305",
": c #020106",
"> c #030106",
", c #040205",
/* pixels */
"@@@@@@@---@@@@@@@@@@@@@@@@@@@;@@@@@@@;@;-@@@-;-@---@-@@$$$-----@@@--@@@@@@$$---@--------&&&&&&&&&&&&",
"@@@@@@----@@@@@@@;;@@;;@@@@@@;@@@;@;;@;@-@@@--------$@$$-;-----@@@--@@@@@$-;---@--------&&&&&&&&&&&&",
"@@---@----@@@;$;@@;@;@;;@@@;;@;@;@;@@;@;-@@@---@------@@-------@--@@@;-@@---------------,&&,&,&,&&&&",
"@@--@@@@---@@@;@@@@;@;@@@@@@@;@@@;@;;@;@-@@@--@@@---;$@@------@@--@@$$-@@------@----------@-@-@-&&&&",
"@@---@@@;@;@@@$$;@;@@;@;@@@@;@@@@;@@@;@;-------@------@@--@---@@;-@@---@@------@----------------&&&&",
"--------@;@@@@@@@;@;;@;@@;;@@;;@;@@@@@;@----------------------@@-@-----@------------------------&&&,",
"-----@--;@@;@;$$;@@@@@@@;@;@;;@;@;@@@@@;@--------------@------@@@@----------@--@----------------@---",
"----@@@-@;;@;$$$@;@@@@@@@;@@@@;@;@@@@@@@@@@@@@--@@----@@@@@@-@@@@@---------@@--@--------------------",
"@@@@@;@;$;@;@;@@@;@;@;@;@@@@----@;@;-@@@@@------@@@,--@,-------@@@--------------@---------,@&&@->>--",
"@@@;;@;@;@;@;@@;;@;@;@;@@@@@----;@;@--$$$;---------@--@@----------------------------------&,&&-->>>-",
";@;@@;@;@;@;@;;@@;@@@;@;--------@;@;---;----------@&-@@@----------------------@@----------&&,&------",
"@;@@@@;@;@;@;@@@;@;@@@;@--------;@;@---$--------&@&@&@@,--@@@-----------@-----@@--@@@------@-------@",
";@;@@@@;;@;$@;@;;@;@@;@;-$;-----@;@;@;$$---@@@@-@@@@@@@---@@@-----------@@-----@@@@@@@--------------",
"@;;@@@@@@;@$;@;@@;@;@@;$@@@@@---;@;@@@@@---@@@--@,-@-@----@@------------@@------@@@@@---,-----@&----",
"@;@;@;@@$$$$@@@@;@;@;@@$@@@@@@--@@@@@@@@-@@@@@------------@----@----------------@-------&------&----",
"@@;@;$$@@@@@@@@@@@@;@;@@@@@@@@@-@@@@@@@@@@@@@@@-@@@-----@@@@--@@@@@@@@@@--------@-------&@-----,----",
";@$@@@$$@---@@@-@,,&@@@@---@@@@@@@@@@@@@@@@@@@@@@---@@;@;@@;@;@@-@@@---@@---$;--@------@------------",
"@;$@@@$;@--@@@--&&@@,@----@@@@@@@@@@@@@@@@@-----@@--@@@;@;;$;@@@@@@@---@$;--$@--@--@---@-----@@-----",
"@;@@@-;@@@-@@@--@@@@---@@@@@@@@@@@@@@@@@@@@@@@@@@@@@@@;@@@@$--@@@@@@@---@---@@@@@@-@@--@----@@@@----",
"@@@@@--@----@@--,@@@@@@@@@@@@@@@@@@--@@@@@@@@@@@@@@@@@@;@@@@@@@-@@@@@---@---@@@@@@-@@--------@@@@@@@",
"@@@@@$$@--@@@@@@;@@@@@@@@@@@@@@@@@@--@@@@@@-----@@@@@@@@@@@@@@@@@@@@@@@@@----@@@@@-@@--------@@-----",
"@$$@@@;@-@@@@@@@@@&@@@@@@@@--@@@@@@---@@@@@@@@@@@@@@@@@@@@@@@@@@@@-@@@@@@-------@@-@@--@----@@@-----",
"@$$@@@@;-@@@@@@@;@@&@&@&@@----@@@@@@----@@@@@@@@@@@$@@;@@@@@@@@@@@--@@@-@@@;----@--@---@@-----------",
"@;$@@@@;--@@@@@@;@@@&&@@@-----@@@@@@@-------@@@@@@$$;@@;@@@@@@@@@---@@--@@@$----@------@------------",
"----@,&&@-@@@@@@@@@@;@@@@$$@@--@;-@--@@@@@@@@---------@@@@$$@@@@----@@@-@@------@----@,&------------",
"----,@&&---@@@@@@@@@@;@@@@$@@--@-@@---@@@@@@@@@@---@@@@@@@@@@@@@;$------------@@@----,&&-------@----",
"@----@@@@--@@@@-@@@@;@@@$@@;-@@@-@@@------@@@@@@--@@@@@-&@@@$$@@$$@@------------@-----@,------@@----",
"----@,@@@---@@@-@@@@@;@@$@@@-@@-@@@@------@@@@@----@@@--$@@@;$@@@@@@@@--@@@-----@-------------@@----",
"-----@@@@---@@@-@@@@@;@@$@@;-@@@@@@@@--@--@@@------------@@@--@@@@@@@@-------@@@@@-------------@@---",
"@----@@@---@@@@-;@@@@@@@@@@$-@@@$$@@@-@@@@@@@---@@----@@@@@@---@@@@@&---------@@@@--@@----------@---",
"@@--@@@@-@@@@@@-@@@@;@@@@@$@@-@@@$@@@$@@@@@@@---@@@@@@@@@@@---------$$--@@@---------@@@-------------",
"@---@@--@@@@@---@@@@@;;@@@$@@-@@@@@@@$@@@@@@@@@@@@@@@@@@@@--------@@-;------@@@@-----@@-@----------@",
"$@&@&@@@-----@@@@------;@@$@;$$$$$@@---@@$@@@$------$$$;-------@;@;@@@@;@@@;@@@-@@------;--@@@@@----",
"@&@@@@&,--------@@-----$@@@@@@@@;$@@@@@@@@@@@@-;---@@@@@-----@@@@;@@@@;@@@;@-@--@@---------@@@------",
"@@@@@@@---------@@-@@@@$@@@@@@@@@@@@@@@-@@@@@@@$;$@@@@@@@@@@@@@@@@@@@@@;@@@;----@@---------------@-@",
"@@@@@@@-@@@@@@--@@@@@@@@@@@@@@@@@---@@--@@@@@@$$-$@@@@@@@@@@@@@@@@@@@@@@@@;@----@@---------------@--",
"$$$$@$$;@@@@@@@@@@@@@@@@@@@@@@@@@@$$@@@$$@@@@$-@@@@@@@@@-@@@@@--@@@@@@@@@@@@$$-@@@------------------",
"@@$@@@@@@@@@@@@@@@@@@@@@@@@@@@@@@@@@@@@$@@@@@@@@@@@@@@@@--@@----@@@@@@@@@@@@-;@@@@@-----------------",
"@&@@@@@@@@@@@@@@@@-@@@@@@@@@@@@@@@@@@@@@@@@@@@@@@@@@@@@@@@------@@@@@@@@@@@@---@@@@@@-----------@@@@",
"&&&&-@------@@@@@---@@@@$@@@@$@-$@@@@$@@@@$@@@@-@$$;@@@@@@@-----@@@@@@@@$@@$---@@@@@@---@@@---------",
"&@@@@@@@-@@@@-@@@@@@---@@@---@@@$$;@@@@@$@@@@@@-@@@@@---@@-@@@@@@@@@;@@@@@@;;@;@@@@@@---------------",
"@@@@@@@@-@@@@@@@@@--@@@-@@---@@@@@@@@@@@$;@@@@@@@@@@@---@@-@@@@@;@@;@@@@@@;@@;@;@@@@----@-----------",
"@@$;$@@@-@@@@@@@@---@@@-@@------@@@@@@@@;$@@@@@-@@@@@$--@@@@@@--@@@@;@@@@@@;;@@@@@------@@----------",
"@@$$;@@@@@@@@@--@---@@@-@--@@@--@@@@@@@@;@@@----@@@--;@@@@@@@---;@@;@;@@@@@@@;;@-------@--------@---",
"-;@@@@@@@@@@@@--@@@@@--@---@@@@-@@@@@@@@@@@-----@$$$--@@-@@@@---@@@@;@;@@@@@;@;@------@@------------",
"-@@@@@@@@@@@@@--@@@@---@---@@@@@@@@@@@@@@@@---@@@@@;-@@@-@@@@--@@@@@@;@@@@@@@;@@------@@------------",
"@@@@@@@@@@@@@@--@@@@@@@@@@@@@@@@@@@@@@@;-@@--@@@@@@@@@@@-@@@---@@@@@@@$@@@$$@@@@-@@@---------------@",
"@@$$@-@@@@-@@@@-@---@@@-@@@@@@@@;@@@@@;@-@@@@@@-@@@@@@@---@----@@@@@@;$@@-;$@@@@@@@@@-------------@@",
"@@-@@@@@@@$$@@@@@@@@@@@-@@@@@@@@;@@@@@@@@@@@@@@;@--@@;;-@@@@;@@-@@@@@@$$@@@@@@@@@@-----,---@@@@@----",
"@@--@@@@@@@@@@@@@@@@@@@-@@@@@@--@@@;@@@@;@@@@@@@@-@@@@@@@@@$--@@@@@@@@@@@@@@@@@@@@---------@@@@@@@@@",
"@---@@@@@@@@@@@$@@@@@@@---------;@@@@@@;@;@@@@@@@$-@@$$@@@@$;-@@@@@@@@@@@@@@@@@@@@@----@--------@@--",
"@---@@@-@@@@@@@$@@@-@@@@--------@@@;@@@@@@@@;@@@@$$@$$$$@@@$--@@;@;;@@@@@@@$;@@@-@@@--@@------------",
"-@@@@@--@@@@@@@@@@--@@@@@@@@@@@@;@@;;@@;@@@@@;@@@@@@@@@@@@@@@--@@@;@@@@@@@@;@;@@-@@@--@@@-------@@--",
"-@@@@--@@@@@@@@@@--@@@@@@@@@@@@@@@@@@@@@@@@@;@;@$@-@@@@@@@@@@@-@@@@;@@@;@@@@@@;@-@@---@@------------",
"-@@@@---@@@@@@@@@--@@@-@@@@@@@--@@@;;@@@;@@@@;;@$;--@$$@@@@@@--@@@;@@@;@$@@@@;@;@-------------------",
"---@@---@@-;$$$@@--@@@;@@@@@@---@@@@@@@;@@;@@@@@@;@@@$;@@@-@---@@;@;@@@;$;@@@@;@@-------------------",
"@@@@----@@@@---@@&@@&@$$-@@-$@@$@@@@;@;@@@@@;@@;@@@@@;;@@@@@@@;@;@;@;@;@@-$$---@@@@@@@@@------------",
"@@@@@---@@@@@--@&@@@@&$@-@@-;@@@@@@@@;@;@@@@@;;@@@@@;@@@$@@@@@@;@@@;@@@;--;@-@@@--------------------",
"@@@@@@@@@$$@@$@@&@@@@&@@-@@@@@@@@@@;;@;@@@@@@@@@@;@;@@@@@$;@;@@@@@@@@@@@--@@@@@@@@@-----@@----@@----",
"--------@$;@@$@@@@@@@@@@@@@@@@@@@;;@@@@@@@@@@@@@;@@@;@@@@@@@@;@@@@;@@@@;--@@@@@@@@@@@@--@@----@@----",
"@@@-$$;-@---@@$@@@@@@@@@@@@@@@@@@;@;;@@@@;@@@@@@@@@@;@@@@@@@@@@@;@;@@@@$-@@@@@$;--------,@-,--------",
"@@@@@@@@@--@@@;$@@@@@@@&@--@@$$@;@;@@;;@@@@;$$@@@@@@@;@@@;@;@@@@@@@;@@@@@@@@@@$$--------@------@----",
"@@@@@@@@@-@@@@@@@@@@@@&@@--@@@@@@;@;;@@@@@@@;@@@@@@@;@@@;@@@@@@@@@@@@@@@@@@@@@--@@@----@@@@@-@@@----",
"@@@@@@@@@@@@@@@@@@@@@@@@@--@@@@@@@@@@@@@@@@;$$@@@@@@@;@@@@@@@;@;@@;;@@$@@@@@@@@@-------@,-----------",
"@--@@@-@@@@@@-$$@@@@@;@@@@@@@@@@@;@@;@@@@@@@@@$---@@----@@@----@--@@@@@$@@@@@@;@;;@@@@;@;@;@;@;@----",
"----@---@@@@@@@@@@@@@@@@@@$$$;$@@@@@@;@@@;;@$$;-@@@@@@@-----------@@@@;$@@@@@@@;@@;@@;@;@;@;@;@;----",
"@@@@@@-@@@@@@@@@@$@@@;@@@@@@@@@@@@@@@;@@@@@@@@@$@@-@@@@-@@@@--@@@@@@@@@@@@@;@@@@@@@@@@@@;@;@;@;@----",
"@@@@@@@@-----@@@@@@@@@@@@@@@@@@@@@@@@@@@@@@@@@@@@@@@@@@-@@@@@@@@@@@@@@@@@@;@@@@@@@@@@;@@@;@;@@@@----",
"@---@---@---$$@@@@@@@;@@;$$$$---@@@@@@@@@@@@@@@@-@@@@-@@-@@@----@@@@@@@@@@@;@@@@@@@;@;@;;@;@;@@@----",
"@--@@---@@@@@@@@@$@@@@;@-$$@$;--;@@;;@@@@@@$@@@@-@@@---@@@@@----@;@@@@@@@@;@@@@@@@;@;@;@@;@;@;@@----",
"@@@@@@@@--$@@@@@;@@@@@;@@@@@@@@-@@@;@;@@@@@@@@@@--@@@@--@@@@@@-@$;$@@@@@@@;@@@;@;@;;@;@;;@;@;@;@----",
"@--@@@@@;-;@@@@@@;@@@;@@@@@@@@--@@@@@@@@@@@@@@@@@--@@@@---------;-@@@@@@@@@@@@@;@@@@;@;@@;@;@;@;----",
"@@@@@@;@@@@@@&@&;@@@@@$@@@@@@@@@@@@@@@@@@@@;;@@@@@---@@@@@@-----@@@@@@@@@@@$@@@@;@@@@@@@;@;@;@@@----",
"@@@@@@@;@@@@@@@@@@@@@@@@@@--@@@@@@@@@@@@@@@@@;@;@@---@@@@@@@@--@@@@@@@@@@@@@@@@@@;@;@@;;@;@;@;;@----",
"@@@@@@@@@@@@@@@@;@;@@@@@@@$;;$@@@@@@@@@@@@@@@@;@@@--@@@@@@@@@@@@@@@@@@@@@@@@@@;@@@;@@@;@;@;@@;@;----",
"@@@@@@@@;@;$&@@@@;@;@@@@@@@$@$@@@@@@;@@@@;@@@;@;@@@@@@@-@@@@@@@@@@@@@;@;@@@$@;@;@@@;@@@;@;@;;@;@----",
"@@@@@@@@@@@@@@@@;;@;@@@@$$@@;;@@@@@;;@;@@@;@;@@@@-@@@@@-@@@@@@@@@@@@$$;@@@@@;@;@@@@@;@;@@;@;@;@;----",
"$@@;@@@;@@@@@@@@@@;@@@@@;$@@@@@;@@@@@;@;@@@;@;@@@@@@@@@-@@@@@@@@@@@@@;@;@@;@@@@@;@@@@;@@@@;@;@;@----",
"@$;@@@@@&&&@@@@@@@@@@@@@@@@@@@;@@@@@@@@@@@@@@@@@@@@@@@@-@@@@@@@@@@@@@@;@@@@;;@@@@;@@;@;@;@@;@;@;>>--",
"@@@@@@@@&@@@@@@@@@@@@@@@@@@@@@@@@@@@@@@@@@@@@@@@@@-@@@@---@@@@@@@@@@@;@;@@$$@;@;;@;@@;@;@;;@;@;@>>--",
"$@@@@-@@@@@@@@@$@@@@@@@@@@@@@@@@@$$@;@@@@;@@@@@@@@@@@@@-@@@@@@@@-;@@@@$$@@@@@@@;@@;@;@;@@@@@;@;@&&&&",
"$@--@@--@@@$@@@$@@@@@@@@@@@@@@@@@$$;@@@@@@@@@@@@@@@@@@@@@@@@@@@@@@@@@@@@@@@@;@;@@;@;@;@;@;;@@;@;&,&&",
"@@--@@@@@@@@@@@&@@@@@@@@@@@@@@@@@$;$@@@@@@@@@@@@@@@@@@@@@@@@@@@@@@@$@@@@@@@;@;@;;@;@;@@;;;@;;@@;----",
"@@--@@@@@@@@@@@@@@@@@@@@@@@@@@@@$@-$@@@@@@@@@@@@--@@@@@@@@@@@@@@@@@$$@@@@@;@;@@@@@;@@@@@@@;@@@@@----",
"$$$$---@@@$@@@@@@@@@@@@@@@@@@$@@@@$@@@@@@@@@@@@@-@@@--@@@@@@@@@@@@@@@@@;@@;@@;@@@@@@@@@@@@@;;@@;----",
"$@@@-;@@@$-;@&@@@@@@@@@@@@$-@$;@@@@@@@@@@@@@@@@@@@@@---@$$;$-@@@@@@@@@;@;@@;;@@;@@;@;@@;@@@@@;;@----",
"@@@@@@@@@$-@@@&@@@@@@@@@@@@-----@@@@@@@-@@@@@@@@@@@@--$@$@-@@@@@@@@@@@@@;@;@@;@;@@;;@@;@@@@;@;@;----",
"@@@;@@$;@@-@@@@@@@@@@@@@@@@@@@--@@@@@@@-;@;@@@@@-@@@;$$@@@@@@@@@@@$@;@@@@;@;@@;@@@@@@;@;@@@@;@;@----",
"@@@@@---&@@@&@@@-@@@--@@$$@@@@@@-@@---@-@@@@--@,@&&@@@@@@@@@@@@@@@------;@;@;@@@;@;@@;@;;@;@;@;@----",
"$$------@@@&@@@@@@@@@@@@@@@@@@@@-@@--@@@@@@@@@@@&@@@@@@@--------@@---@@@@;@;@;;@@;@;;@;@@;@;@;@;----",
"$---;$--@@@@&@@@@@@@@@@-@@@@@@@$@@@--@@@@@@@@@@@@@@@@@@@@@@@----@@@;@@@-;@;@;@@@;@;@@;@;;@;@;@;@@--@",
";----$$@@@@&@@@@@@@@@@@-@@@@@;$$@@@;-@@@@@@@@@@@@@@@@@@&@@@@@@@@@$$$----@@@;@;@@@;@@;@;@@;@;@;@;&&,&",
"$@@@@@@@@@@@@@@@-@@@$;-@@@@@----@@@@$@@@@@@@@@@@$@@@@@@@--------@-------;@;@;@;@;@;@@@@;@;@;;@;@-,-,",
"@@@@@@@@@@@&@@@@-@@@$$-@;$$@@@@@$@@@@@@@@@@@@@@@;&@@@@@@-----@@@@@@-@@@-@;@;@;@@@;;@;@;@;@;@@;@,,-,@",
"@@@@@@@@&@@@&@$;@@@@@@@@@@@@@@@@$@@@@@@$@@@@@@@@@@@@@@@@@@@@@@@@&@&@-@@@;@@;;@@;;@@;@;@;@;@;@&,&----",
"@@@@@@@@@@@&@@$@@@@@@@@@@@@@@@@@$@@@@@@@@@@@@@@@&@@@@@&@@@@@@@@@@&,-----@@@@@;;@@@@@@@;@;@;@;&&&----",
"$@@@-@@@-@$@@$$@@@$$@@@@$$@@@@$$@@@@@@@@@@@@@$@@@@@&@&@&@@@@----&&@&-----@--@-;-------,-@@@@---,&&&&",
"$@@@-@@@@@@@@$@@@@@@@@@@@@@@@@@$@@$$@@@@$$@@$$&@@@&@&@@@@@$$----@@&@-----@--@------->--,-,&&--,@&&&&",
"@@@@-@@;@@@@@@@@@@@@@@@$@;$@@@@;$$$;-@@@;;@;-,&,@@&@@&@&--;---@@@@@$-----@--@---------,-&&&&---,-,&&",
"@@@@-@@$@$$@@@$@@@@@@@@$;$$$$@;@$@----;$@@;@@@-,&@@@&@@@--------@--;-----@--@--@@------,-&&&--,,,-,&"
};
