/* XPM */
static char *_57407f9ccd84a9bfeebffcf70ea6722qxgJuAQ7vq1He9Ur[] = {
/* columns rows colors chars-per-pixel */
"33 33 46 1 ",
"  c #130013",
". c #150015",
"X c #180019",
"o c #1D001D",
"O c #150014",
"+ c #120011",
"@ c #10000F",
"# c #110011",
"$ c #110010",
"% c #100010",
"& c #140014",
"* c #120012",
"= c #140013",
"- c #190019",
"; c #130014",
": c #1A001A",
"> c #1D001E",
", c #1F0020",
"< c #1B001C",
"1 c #170017",
"2 c #100011",
"3 c #120013",
"4 c #150016",
"5 c #160017",
"6 c #110012",
"7 c #130012",
"8 c #19001A",
"9 c #1C001D",
"0 c #1E001F",
"q c #1A001B",
"w c #140015",
"e c #170018",
"r c #160016",
"t c #180018",
"y c #0E000E",
"u c #0F000F",
"i c #0E000D",
"p c #0F000E",
"a c #1B001B",
"s c #200021",
"d c #210022",
"f c #1C001C",
"g c #1E001E",
"h c #0F0010",
"j c #1E0020",
"k c white",
/* pixels */
" ..XoO+@# $#$%%%#%@#&**=%%@@@+++-",
";.:>,<1 2### &; 33 &451&*6##67$*.",
"*.890qw62%%#3;&&&*&w5e1;#22#2#%22",
"3r8<q5 #%%#**7#  *&weX1&###*6##%%",
" we8e4 #63w44&%3** rete.666* ;3#2",
"#*ww& #* ;ww&*##2%#&w55&**%%6  2#",
"y%uu +*** *6*#%%2##*w.&*#%@%$@%i%",
"%#%# .1r. ##*3 ##6#345r * & **@p#",
"###*&455&#%%3..*##2*;.&#3wr. *%#%",
"6%%# ***%upuu##u#yup#*%u%*;3***32",
"#%2#** ##$$%%#p%#%$%6*##%*****;w3",
"6###6  ###6#6#% *3*** ;36##6#*3& ",
"%#2%2#*6#2#22%6w45544.w&&*##62#2*",
"@+%u#6   ##226&ea90><85.w  w #uy*",
"* 3*63w..*6#235q0sd0><e &455w3%u2",
"*%*#*63w&#uu% e:>a9f>q @3&r. 6%@%",
"#yp%*u$#ppipp%*.t&r&at$ip#*u@uiiy",
"***;.O.*+$$#*=%.4.r-g<r #6*#****#",
"3;w45tr*#22##$$*3 e900-&##%2*&w&w",
"$ ;4te4622#6#%2h6;t<>qr*#h%#6* *w",
"#&&1Xt53##633*#26;e:qew*2%*;&&*#&",
"#6;r5e5 6##6; *#634e54;#* &4.&$#6",
"%%* 44;*#%u%#*#u%u##* ##*    *#22",
"6##&r.&*+###$%yu$%@p# =O&&*#*###2",
"##6;r5.*;4.& +u####* .et5;#%6 . 6",
"%h%2; ##*ww;*+*#222#3&&w;2%u#3w*#",
"yuuu $@u#3***3;362%%**#*%u@uup%y#",
"#**#*77*##*** &&3##26* 3##*##*%%*",
"&;;;;;;33##666*33##2263##2####% ;",
"X::-e5w.;** #%uh#%#u%#**3#2%%%#&e",
"0ss>9-4www4. #u%***##63&&3####;e<",
"jj0>>t #.5e4;#%u6**36*;.4&#2%6489",
"1--->&p@#& #%%py#%@%##%**%piu%&ra"
};
