/* XPM */
static char *_0b6601c3daf4fbaf8f0bb211ede6169VYnia1YUCiBeCpfS[] = {
/* columns rows colors chars-per-pixel */
"100 100 35 1 ",
"  c #070707",
". c #0B0B0B",
"X c #131313",
"o c #1B1B1B",
"O c #242424",
"+ c #2B2B2B",
"@ c #333333",
"# c #3B3B3B",
"$ c #3F403F",
"% c #434343",
"& c #484748",
"* c #4B4B4B",
"= c #504F50",
"- c #535353",
"; c #5C5C5C",
": c #636363",
"> c #6B6B6B",
", c #747474",
"< c #7B7B7B",
"1 c #838383",
"2 c #8C8C8C",
"3 c #949494",
"4 c #9B9B9B",
"5 c #A4A4A4",
"6 c #ABABAB",
"7 c #B3B3B3",
"8 c #BBBBBB",
"9 c #C4C4C4",
"0 c #CCCCCC",
"q c #D4D4D4",
"w c #DBDBDB",
"e c #E4E4E4",
"r c #EBEBEB",
"t c #F3F3F3",
"y c #FDFDFD",
/* pixels */
" .       ..    .. ... . . . . ........ .........X..........X...............  . ..  . .   .. .       ",
"  .  ..    ..      ..... .... . . .................X..................... .....  . ..  ..    ..     ",
"      . ..  . . ...  . ........ .................X.XX.X.X.................. .     .  ..  ..       . ",
"     .     .   ... .. .... .. ..... ....X....X.X..X..X...XX.X..X.X.......... ....  .        .  ..   ",
"       ..  ... ..... ..................X.X.X.X.XXXX.XXXXX..XXX.X..X.......... .. .. .       .       ",
".      .. .  .. .........  .. ........X..XX.XXX.XXXXXXXXXXXXX.XXXX.X.XX..............  .  .        .",
" . ..    .. . . ........ ........X.X...XXXXXXXXXXXoXXXXXXXXXXXXXX.X.XX..X..X...X...  .. . .   . . . ",
"      .    . ..............X..XXX..XXX.XXXXXXXoXXXoXXooXoooXoXXXXXXXXXXX..X.......... .. . ..       ",
"    . ... . .............X.X.X.XXX.XXXXXXXoXoXoooooooooooooooooXXoXoXXXXXXX...X......... . .. ...  .",
"...  .  . .  . ........X......X..XXXXXoXXooooooooooOooOooooooooooooXoXXXX.X.XX......X..... . ..     ",
" . ... .. ..................X.XXXXXXXXooooooooOooOOoOOOoOOOOoooOOooooooXXXXXX.X.X..X........... .. .",
"  .  ....................X.XXXXXXXXoooooooOooOOOOOOOO++OOOOOOOOOoOOooooXXXXXXX.X.......... . .... ..",
"  .. .. .... ....X......XX.XXXXXooooooooOOOOOOO+O++++++O+++O++OOOOOOOooooooXXXXXX...X..X.. ... .... ",
". . . ..............X.X..X.XXoXoXoooOOOOOOO++++++++++++@++++++++O+OOOOOOooooXXXXXXX......... ... .. ",
" .  ..... ...........X.XXXXXXXoooooOOOOOO+++++@+@@@@@@@@@@@@@@++++O++OOOOooooooXXXX.X............ . ",
"  .. . ..........X.X.XXXXXXXXooooOOOOO++++++@@@@@@@@#@##@@@@@@@@@+@+++O+OOoooooXoXXXXXX....X... ... ",
". ... .........X..X.XXXXXoXoXooooOO++++++@@@@##@####$#$%#######@@@@@@+++OOOoOooooXXXX.XXX..... .  . ",
".. .... .........X..XXXXXXoooooOOO++++@@@@@###$%&&&&&&&*&&&&%$####@@@@+++++OOoooooXXXX..X.XX.... .  ",
"  .................XXXXXXoooOoOO++++@+@@###%%&*--;;:>,>>>:;-==*&%###@@@@@++OOOOoooXXXX.X....... . ..",
". .   ..........XXXXXXXoooooOOO++++@@@@##%&*-;,2580wweeewq9741:;=&&%##@@@@+++OOoooooXXXX.X.X....... ",
".  ............X.XXXXoXoooOOO+++++@@###%&*;<40etyyyyyyyyyyyytrw82>;*&$##@@+@+OOOooooXXXXX.X........ ",
".... .........X.XXXXoXooooOOOO++@@@##%&-:29eyyyyytrewwqweeryyyyytw6<;=&$#@@@@++OOooooXXXX...X... . .",
" ...... .....X.XXXXXXooooOOO+++@@###&-:20ryyytw952<>::;:>,1470ryyyye6,;*%##@+++OOooooXXX.XX...... . ",
" . .........X.X.XXXoXoooOOO++@@@@#%*;<8tyyye82>-=&%%&%&%%%&*-:<40ryyye5:-&##@@+++OOoooXXXX.X........",
".. .... ...XX.XXXXXooooOOO++@@@##&=:4eyyyw5,-&%%%##########%%&&*:28ryyt01;*$#@@+OOOooooXXX........ .",
".  .......X..XXXXXXoooOOO++@@@##&->8tyye5>*&%#########$##%%##%$&&*;19tyyw3;*#@@+++OOoooXXX.X........",
" ...........X.XXXXXooOOOO++@@#$&-<0yyt9<-&%###############%#%#%%%&&*:4eyyr6:*#@++OOoOooXXXX.... ....",
"... ......X.XXXXoXoooOO+++@@@$&-1qyyr5:&%#####@##@######%#%%$%%%%%&&*-<0yyt7;&#@+OOOooXoXXXXX... ...",
"........X..X.XXXXXooOOO++@@##&-1wyyw2-&$######@@@##@@####%#%%%%&&%&&&*-,8tyt4*#@++OOoooXoXX..X......",
"..... .....XXXXXXoooOO+++@@#&-,wyyw1=&####@#@@#@@@@@@@@####$#&%%&&&&&*;>5tyy5&$@++OOOoooXX.XX..... .",
". . ........XXXXooooOO++@@#%*>0yyw<=%####@#@@@@@@+@@@@@#@##%$$%&&&&*-;>5ryy9:&#@++OooooXXX.X....... ",
".........XXX.XXoooOO+++@@##*;7yye1=&######@@@@@@+@+@@@@@@####%%%&**--:4ryy9:&$@++++OoooXXXXX....... ",
" ........X.XXXXoooOO++@@##&;3tyr2-&$####@@@@@+++++@++@@@@####$%&&*--:4ryy9:&$#@+++OoooooXXX...X.....",
"........X.XXXXoooOO+++@@#%*,wyy6;&%###@@@@@++++++++++@@@@###%%%%**-:4ryy9>&%#@@++OOOooXoXXXX.X......",
".......X...XXXoooOOO+@@@#&;7yy0>&%####@@@++++++++++++@@@@###$$&&*-;4ryy9>&%#@@+++OOOoooXXXXX........",
"..X....X.XXXXooooOO++@@#%-1eyr1=&$$#@@@@+++++OOOO+++++@@@###%%&&-:4ryy9:&%##@@@+OOoooXoXXX.XX.X.X...",
".....X..X.XXXoooOO+++@##&:8yy8;&%####@@@++O+O+O+O+O++@@@@##$$&*-;4ryy9>&%##@@+++OoooooXXXX...XX.....",
".......X.XXXXXooO+O+@@@%-<eye<*&$###@@++++OOOOOOOO++++@@###$%&-;4ryy9>&%##@@@++OOOooXXoXXXX.X..X... ",
"....X....XXXooooOO++@@#&;6yy8;&%$##@@@@++O+O+OO+++++@@@@##$$&-;4eyy9>&&###@@@+OOOoooXXXXXXX..X......",
"X.......XXXXoooOOO+@@#%->wyr1=&###@@+++++OOO+OOO+O+++@@###%&=;4ryy9>&%###@@@++OOOoooooXoXXXX....... ",
".........XXooooOO++@@#&-2ty0:*%###@@++++OOOOOO++++++@@###%&=;4ryy9:&%$###@@++OOOooooXoXXXXX.X.......",
".......XXXXXXooO++@+@#&;6yy6;&$##@@+@++++OOOOOO+++@@@@##%&-;4ryy9>*&$##@@@+++OOOoooooXXXXXX.........",
"X......X.XXXooOOO+@@#$&:qyt1*&###@@@+++OOOOOOOO+++@@@@#$&-;4ryt9>&%%####@@++OOoooXXXXXXXXXX...X.....",
".....X.XXXoooooO++@@#%*,eyw>*%##@@@+++OOOOOOOO+++@@@@#$&*;4ryy9>&&$###@@+@++OOoooooXXX.XX.X....X....",
".......XXXXXoOOO+@@@#%*1ry9;&$###@++++OOoOOOOO++@@@###&=;4ryy9>*&#$%#@@@++++OoooXXXXXXX.X....X......",
".....X.XXXooooOO++@##$-4yy7;&###@@@+++OOOOoOOOO++@@##&*;4eyy9>=&&$###@@@++OOOOoooXXXXXX.X.X......X.X",
"...X..XXXooooOO+++@@#%;6yy4-&%#@@@++++OOOOOOOOO+@@##%*;4ryy9>=&&%$###@@+++OOOoooXXXXX.XX..X.X..X.X..",
"......X.XXXoooOO++@@#%;7yt3-&$##@@++OOOOOooOOO++@@#$&;4ryy9>=&&%%%$##@+++OOOooooXXXX.X..X.X..X....X.",
"......XXXXoooOO+++@@#&;8yt2-&##@@@+++OOOOOoOOO+++@#&;3ryy9>-*&&%%$###@@++OOOoooXoXXXX..XX..X..X.X...",
".......XXXXoooOO+@@@#&;9yt1-&###@@++OOOOOOOOOO+++##&>eyy0<;*&&&&&$##@@++OOOoooXoXXXXXXX.X.X.X.......",
".....XX.XXXXooOO++@@#*;8yt2-%$##@@+++OOooOOOOO+++@#&>wyyq1:;=**&&$###@@++OOoooXooXXXXXX.......X.....",
".......XXXoooOo+++@@#&;8yt2-&##@@@@++OOOOOOOOOO+@@#%=2eyy01:;=&&%%##@@+++OOOoooXXXXXXXXX.X.X.......X",
".....X.XXXXoooO++@@##&;7yt3-&%##@@+++OOOOOOOO++++@@#&=2eyy0<;-*&%%##@@@++OOOoooooXXXXXX.XX..........",
".......XXXXooOoO+++@#&-6yy5;&$##@@@++OOOoOOOOO+++@@@$&=2eyy0<;-*&%$##@@++OOoooooXoXXXXXXX..XX.......",
"......X.XXXooOO+++@@#$-3yy7;*%##@@+++OOOOOoOO+O++@@###%=2eyy0<;=&&$##@@@++OOoooooXXXX.XXXX.X........",
"X......XXXXoooOO++@@#%=1ry0:-%##@@@++++OOOOOOOO++++@##$&-2eyy0<;*&%###@@@+OOOooooooXXXXX..X.X.....X.",
"X....XX.XXXoooo+O+@@##*>eye,-&$##@@+++OOOOOOO+++++@@@###&=2eyy0<;*&$##@@@++OOoooXoXXXXXXX.X..X.XX...",
".......XXXXooooO+++@##&;0yt2;&####@++++OOOOOOOOO++++@@##$%=2eyy0,;&%$##@@++++OOooXoXXXXXX.X.........",
".....X.X.XXXooOO+++@@#%-5yy6;*$##@@@+++OOOOOOOOOO+@@@####%&=2eyy0,;*&###@++++OOooooXXXXXXXXXXX.X....",
".......X.XXooooOO++@@#%*1ryw>-%###@@++++OOOOOOOO++++@@@##$$&-2eyy0,-&%$##@@+++OooOoooXXX.X..........",
".........XXXooooO++@@#$&:qyt3;&%##@@@+++OO+OOOOO++++@@@####%&-2eyy0<;*%##@@@++OOOoooXoXXX..X.X.... .",
".........XXXXooOOO+@@##&-5ty9:-%$##@@@+++OO+OOO++O+++@#@##$$%&-2eyy0,-*%###@@++OOOoooXXXXXX.........",
".........XXXXoooOO+@@@##&,eyr1;&%##@@@@+++O++OO++++++@#@###%$%&-3eyy0,;*%##@@++++OoooXXXX...X..... .",
"......X..XXXXoooOOO++@##&-7yy9:-&####@@@+++O+OOOO++++@@@@##$$%%&-2eyy0,-*###@@++OOoooooXXXXX........",
". .......XXXXXoooO+++@@#$&,eyr3;*%###@#@++++++O+O+++@@@@@####%%%&-2eyy0<-&%#@@+++OoooXXXXXX..X......",
".........XXXXoXoOoOO++@##&=6yyq,;*$$###@@@+++++++++++@@@#@##$%%%&*;2eyy0,;&%##@@+++ooooXXX.X........",
"... ...X.XXXXXooooOO++@###&>qyy7:-%$####@@@@++++++@++@@@@###%%%%&&*-3eyy0,-&##@+++OooooXXXX.X.......",
". ......X..XXoooooOOO++@##%*2ryt4;=&%#####@@@+@++++@@@@@###$$%%&&&&*-2eyy0,-&#@+++OOoooXXXX...X.....",
"....X..XX.XXXXXooOOOO+++@##&-6tye3;=&$####@#@@@@@@@@@@@@@###$%%&&&&**-3eyy0,=$@@++OOoooXXXXX........",
"...........XXXXooooOOO++@@#%&;9yye1;*&%######@@@@@@@@@#####$$%&%&&*&*=;3eyy0>&#@++OOoooXXXX..XX.....",
"........X..XXXXXooooOO+++@@#%&>0yye2;=&%#####@@@@@@@@@@####$%%&&****&-;:5ryy6*#@+OOOooooXXXX.X......",
" ....X....X.XXXXXoooOO+O++@@#%&,qyye4;-&%%$#####@###@#@##$$$$%%&***=-;:<9yyt3*#@++OoooXXXXX.X.......",
".........X.XXXXXXooooOO+++@@##%&,qyyr7>;*&%%%#############%#$%&&**=-;:2qyyt5-%#@++OooooXXXX.XX......",
" ..........X.XXXXXoooOo+++++@@#$&>9tyy01;-*&%##########$%%%%%&&&*=;;>6eyyr4-&#@+++OOooXXX.X.........",
"   ........X.XXXXXXooOOO+++@@@##$&:6ryyr7<;*&&&$$##$#$%%%%&&&&**-;:3qtyyw2-&#@@++OOoooXXXX..........",
".. ......X...X..XXXooooOOO++@@@@#%&-3wyyye71;--*&&&&%%&&&&*&---:>39tyyt8>&%#@@++OOOooooXX.X.. ......",
" ... . ...X..X.XXXXXooooOO++++@@@##%*>7eyyyr94,:;--===-*=---;>16wtyytw3;&$#@@+@++OOoooXXXX.X.... ...",
" .. ..........XXXXXXXoooOoO++++@@@@#%&-18ryyyye0741<,>>,,1359wryyyyw5>*%##@@@+++OooooXXX..X.X...... ",
"  .. .......X....XXXXooooOOOO+++@@@###$&;<7eyyyyyttreeweertyyyyyrq4>=%$##@@@+++OOOoooXXXX.X.... .  .",
". ... . ..X..X.XXXXXXXXooooOO++++@@@@####&=>38wryyyyyyyyyyyytrq61;*&$##@@@@+++OOOoooXXXXXX...... ...",
".  ..............X.XXXXXoooOOO++++@@@@@####%&-:<4690qwwwq9862,;*&$$##@@@@@+++OOOooooXXXX..X....... .",
"  .  .....X.XX.X.X.XXXXXXooooOOOOO+++@@@@@@##$%%&*-;;;:;;;*&%%%##@#@@@@@++O+OOOooooXXXX.X.... ......",
" . .....X.X...X.X.X..XXXXoooooooOOO+++++@@@@@@@#####%$$$$$####@@@@@@@@+++++OoOooooXXXXXX............",
"  . . ............X..X.XXXXooooOOOOO+++@+@+@@@@@@@@#@#@@#@#@@@@@@@@@+++++OOOooooXoXXXX..X...........",
"  . . . ...  ....X..X..X.XXooooooOOOO+O+++++@+@@@@@@@@+@@@@@@@@@+@++++++OOoooooXXXX.X.X........ .. .",
" .. .................XXXXXXXXXoooooOOOOOO++++@+@@+@@@@@@@+@+@+++++++O+OoooooXoXXXXX........  ... .. ",
".  .  ..... .......X..X..X.XXXoXooooooOOOOO++++++++@+@@++++++++++OOOOOOoooooXoXXXXXXX.......... .   ",
" . ...    .... ......X....X.XXXXXooooooooOOOOOOOO+O+++++++++++OOOOOOoooooooXXXXXXX.X.XX....... . .. ",
" ... .   . . .. .....X.X.XX.XX.XXXXXooooooooOOoOOOOOOO+OOO+OOOOOOooooooXXXXXXXX.X.X.....X...... .   ",
". ... .   .. .. ...........X.X.X.XXoXXoXooooooOOOOOoOOoOOooOOooooooooooXoXXXXX.XX....... ....      .",
"  . .   ..... .. .. ........X.X.XXXXXXXooooooooooooOOooooooooooooXooXXXXXXXX..X........ . .. ..  .. ",
"      .. . . .. .... .. .X...X...X.XXXXXXXoXoXoooooooooooooooooXooXXXXXX.X....... .... . .  . .  .  ",
"      . . .  ...  ......... ....X...X.XXXXXXXXoXoXoXoXoXoXoXXoXXXXXXXX.XX..X....... .         . .   ",
"     ..     .   .. .  ............X..X..XX.XXXXXXXXXXXXXXXXXXXXXXXXXX.X.X........... ..   .    .   .",
"        .... . ........ .  .. ........X.X.X.XXXXXXXXXXXXX.XXXXX..X..X............  .     ..        .",
"            . . ..........................X.....X.X.X.XXXX..X.X...X........... ... ... .     .   .  ",
"      .  ..   .  ........................XX...X.X.X.XX.XXX....X.............. . . .  .   .          ",
" .         ... ... . ..  ............... ..............X..X........X...  . . ... . .  ... . . ..  . ",
"     .        . . . ...... ... . ... ....... .........................  . .  . .. . .    ..         ",
"   .. ... . .. ..      ..  .  . ... .....  ... . ..... ................. . . .     . .. . . ..   .  "
};
