/* XPM */
static char *d0389d1140b04e5dd28466d4af6cdfaafwfzh4qAH8PWaAcP[] = {
/* columns rows colors chars-per-pixel */
"33 33 131 2 ",
"   c #010000",
".  c #0C0101",
"X  c #000907",
"o  c #070708",
"O  c #06090A",
"+  c #0B0B0B",
"@  c #170101",
"#  c #1D0202",
"$  c #0F0F10",
"%  c #131313",
"&  c #101917",
"*  c #1B1B1B",
"=  c #250202",
"-  c #2C0404",
";  c #320302",
":  c #3B0302",
">  c #32050A",
",  c #3F070F",
"<  c #310A0D",
"1  c #350711",
"2  c #3C0610",
"3  c #340912",
"4  c #3A0A12",
"5  c #2C1213",
"6  c #3F1E24",
"7  c #1E242D",
"8  c gray14",
"9  c #20262F",
"0  c #272F2E",
"q  c #2D2D2D",
"w  c #212730",
"e  c #232932",
"r  c #292F37",
"t  c #272E38",
"y  c #282F39",
"u  c #2A303B",
"i  c #333333",
"p  c #373C3C",
"a  c #3C3C3C",
"s  c #470302",
"d  c #4A0302",
"f  c #4F070E",
"g  c #4D0A0A",
"h  c #43040C",
"j  c #520706",
"k  c #580403",
"l  c #430912",
"z  c #4A0A12",
"x  c #530814",
"c  c #5A0E1C",
"v  c #650302",
"b  c #6C0402",
"n  c #710603",
"m  c #7B0604",
"M  c #750907",
"N  c #61162C",
"B  c #6A152A",
"V  c #771429",
"C  c #6D1C3B",
"Z  c #7B1E3C",
"A  c #402D2C",
"S  c #5E393C",
"D  c #742D3F",
"F  c #713137",
"G  c #393F49",
"H  c #343B44",
"J  c #6F2040",
"K  c #3B424B",
"L  c #40464F",
"P  c #414750",
"I  c #454B53",
"U  c #565C64",
"Y  c #800605",
"T  c #8B0201",
"R  c #8B0906",
"E  c #9F0200",
"W  c #90140F",
"Q  c #A10400",
"!  c #AA0100",
"~  c #B30501",
"^  c #BE0301",
"/  c #831125",
"(  c #841428",
")  c #8D1B2E",
"_  c #881D3B",
"`  c #9F1833",
"'  c #961A38",
"]  c #9D322A",
"[  c #883633",
"{  c #C20301",
"}  c #C90400",
"|  c #883771",
" . c #893974",
".. c #883E7A",
"X. c #A43C7A",
"o. c #B73E7B",
"O. c #B93F7B",
"+. c #CC3776",
"@. c #CB3A79",
"#. c #DD3979",
"$. c #E53475",
"%. c #E93777",
"&. c #757980",
"*. c #797E84",
"=. c #E13E87",
"-. c #E13F88",
";. c #EC3F89",
":. c #894489",
">. c #945384",
",. c #904B96",
"<. c #904D98",
"1. c #A84481",
"2. c #AD4588",
"3. c #B14A93",
"4. c #B14B94",
"5. c #B15296",
"6. c #9855A2",
"7. c #9558A7",
"8. c #9C60A9",
"9. c #9B64AD",
"0. c #C84288",
"q. c #CB478E",
"w. c #C3598F",
"e. c #CB4793",
"r. c #CC4793",
"t. c #E34391",
"y. c #E34392",
"u. c #ED4190",
"i. c #7D8288",
"p. c #83878D",
"a. c #8B8F95",
/* pixels */
"*           * 8                                         % q       ",
"o                         * +                                     ",
"          +             * 8             o             +           ",
"                      % *                             o           ",
"                      o                           * +             ",
"                                                % q +             ",
"  +               +             o             % i o           o   ",
"  o o             + @ c N B V / ) / V B N x 5 p o             o   ",
"                    - 6.<.3.r.t.u.t.r.4.,.8.S O                   ",
"                    3 ..v T ! { } } ! T v >.6                     ",
"                    1 X.M g v m R m v j n X.1         o           ",
"          +         4 o.R - . # = # . = R o.4         +           ",
"        o           2 @.E ;           - E @.l                     ",
"      q +           z #.~ :           : ~ #.z                   * ",
"    i *           * F $.^ d           s ^ %.f                 * q ",
"  i *           + 0 f $.{ d     +     s { %.f X +           * i   ",
"i 8             p   h #.~ :     o     : ~ #.z             % a o   ",
"8               o   l @.Q ;           ; E +.l           + a +     ",
"                    1 O.T - . @ # @ . = W w.2           o +       ",
"          +         4 X.M g k b Y n k g [ 1.4         o           ",
"          O         3  .b T ! ^ } ^ ! ] b | 3         o           ",
"                    < 9.:.2.0.-.;.=.q.5.:.7.>     % +             ",
"                    A D C Z _ ' ` ' _ Z C B #   + q +             ",
"  o               q %           .             + i +               ",
"  o             p *             O           o a +             +   ",
"o             q q                           i *   o               ",
"*           % 8                           8 8                     ",
"                                                                  ",
"          %             + O             +             +           ",
"                                                                  ",
"e w w e 7 e w e e e e e e e e e e e e e e e e e e e e e r r e r e ",
"t &.p.a.i.&.*.U e u u u y u y u u u u u u u y u y u u t K L G G u ",
"y L I I I K I H r t y y y y y y y y y y y y y y y y y y t u u u u "
};
