/* XPM */
static char *result[] = {
/* columns rows colors chars-per-pixel */
"100 100 65 1 ",
"  c #000000",
". c #080701",
"X c #0C0B01",
"o c #100F01",
"O c #141301",
"+ c #181702",
"@ c #1C1C03",
"# c #242304",
"$ c #2B2A05",
"% c #312F04",
"& c #323106",
"* c #383606",
"= c #3D3B06",
"- c #413F06",
"; c #434206",
": c #494607",
"> c #4B4907",
", c #4B4908",
"< c #514F07",
"1 c #514E08",
"2 c #545107",
"3 c #5E5A07",
"4 c #595608",
"5 c #625D07",
"6 c #615D08",
"7 c #666207",
"8 c #65620A",
"9 c #696508",
"0 c #6C6909",
"q c #716D0A",
"w c #74700B",
"e c #7A750A",
"r c #7E7A0A",
"t c #827D0B",
"y c #86820B",
"u c #8A850C",
"i c #8D880C",
"p c #938D0C",
"a c #95900C",
"s c #9A940C",
"d c #9F990D",
"f c #A09A0D",
"g c #A7A10C",
"h c #ABA30D",
"j c #B3AC0E",
"k c #B9B10F",
"l c #BCB510",
"z c #C0B70D",
"x c #C3BB0F",
"c c #C2BB10",
"v c #CDC40E",
"b c #D3CA0F",
"n c #C9C110",
"m c #D0C710",
"M c #D4CB11",
"N c #D8CF10",
"B c #DBD212",
"V c #E0D712",
"C c #E4DA10",
"Z c #E9DE10",
"A c #EDE211",
"S c #F1E611",
"D c #F5EA11",
"F c #F9EE12",
"G c #FFF413",
/* pixels */
"                                                                                                    ",
"                                                                                                    ",
"                                                                                                    ",
"                                                                                                    ",
"                                                                                                    ",
"                                                                                                    ",
"                                                                                                    ",
"                                                                                                    ",
"                                                                                                    ",
"                                                                                                    ",
"                                                                                                    ",
"                                                                                                    ",
"                                                                                                    ",
"                                                                                                    ",
"                                                                                                    ",
"                                                                                                    ",
"                                               .                                                    ",
"                                         .     .                                                    ",
"                                             ...  .                                                 ",
"                                      .  . . .......... .                                           ",
"                                   . . ......X.X.XXX.X.....                                         ",
"                                     ...XXooOX+OOOOOOoOX.......                                     ",
"                                  ...XXoo+++@@@@@@@@+++OOoXX..   .                                  ",
"                                ...XooO+@@@@@@@@@@@@@@@@@+OOoX.X .                                  ",
"                             . ...Xo@@@@@@@@@@@@@@@@@@@@@@@@OOX...                                  ",
"                              .XXoo@@@@@@@@#@@@@@@@@@@@@@@@@@@OOX...                                ",
"                             ..o++@@@@@@@#*18wtuiute04;$@@@@@@@+OX...                               ",
"                           ..XoO@@@@@@#-8uhlMVSGGGFAVnjaq,$@@@@@+OoX..                              ",
"                         ....oO@@@@@$1ujBFGGGGGGGGGGGGGGBli4%@@@@@OoX.                              ",
"                         ...oO@@@@#,ulAGGGGGGGGGGGGGGGGGGGSni,#@@@@+oX..                            ",
"                         ..oO@@@@&0lAGGGGGGGGGGGGGGGGGGGGGGGSlw*@@@@OoX..  .                        ",
"                       ..XOO@@@@*uBGGGGGGGGGGGFFGFGGGGGGGGGGGGBi=@@@@OX...                          ",
"                      .XXoO@@@@,dAGGGGGGFFFDDSSSSSSDDDDFFFGGGGGZf,@@@@OXX..                         ",
"                      ..XO@@@@,hAGGGGGGGDDSAAAAZZZZAASSSDFFFGGGGAh,@@@@+XX.                         ",
"                    ..XXO@@@@,hDGGGGGFSAAAZZZZZZCZZZZZZZSSDFGGGGGSh,@@@@OXX...                      ",
"                     .Xo@@@@=dSGGGGGSSAAZZZCCCCCCCCCCCCCZZASDFGGGGAf-@@@@OX..                       ",
"                   ..XX@@@@&iVGGGGFSAAAACCCCCCCCCCCCCCCCCZZASDDGGGGAi*@@@+oX.                       ",
"                   .XXO@@@#wBGGGGFSAAVVVCNCCCCCCCCNCCCCCCCCZZADDGGGGVw#@@@Oo...                     ",
"                 . .XO@@@@;lGGGGFSAAAAVVCCCCCCNCCCCCCNCCCCCCZZADFGGGGl,@@@@O..                      ",
"                   XXO@@@$yZGGGGDAAAVVVACCCCCNCCCCCCCCCCCCCCCZZADGGGGAu&@@@Oo..                     ",
"                  ..o@@@@1cGGGGFSAZVCCCCVVCCCCCCCNCCCCCCCCCCCCZZSFGGGGn4@@@@O...                    ",
"                 ..oO@@@#tAGGGGDAZZZCCVVCCBCCCCCCCCCCCCCCCCCZZZZASFGGGSi$@@@O...                    ",
"                 ..o+@@@;jGGGGGAZZVVCVCCBCCCCCCCCCCCCCCCCCZZZZZZAAFGGGGl,@@@@o...                   ",
"                ...O@@@@8BGGGGFAZZZVCVVCCCCCCCCCCCCCCCCCZASSSSSSAASGGGGV0@@@@OX.                    ",
"                 .XO@@@#iDGGGFAAZVVCVCCCCCCCCCCCCCCCCCZZASDFDFFDDAADGGGGa$@@@OX..                   ",
"               ..XX+@@@*hGGGGFAAZZCCCCVVCCCCCCZCCCCCCZZSSDGGGGGGDDASGGGGj-@@@+o..                   ",
"                 .o+@@@1lGGGGFAACCCCCCVCCCCCCZZZZZZCCZADDGGGGGGGGGDAFGGGn4@@@@o..                   ",
"                .Xo@@@@8MGGGGDAACCCVVCCCCCCCZZAAAZZZZZSDFGGGGGGGGGDADGGGB0@@@@oX.                   ",
"                ..O@@@@wVGGGGAAVCCCCCCCCCCCZZZSzSZZZZSDFGGFkw7rnGGGDSFGGSe+@@@O..                   ",
"               ...O@@@@rDGGGGDAACCCCCCCCCZZZASCfSZSZZDFGGDr;#@$:aGGFSFGGFy@@@@OX..                  ",
"                ..O@@@@uGGGGFAAZCCCCCCCCZZZSSSNpCAAZSDGGFh$@@@@@=xGGDFGGGi@@@@O..                   ",
"               ..XO@@@@iGGGGGAAVCCCNCCCCZAZSSSxevSSZDDGGS2@@@+@@#0GGDDGGGi@@@@OX.                   ",
"                .XO@@@@uGGGGGSZZCCCNCCCZZZSSDDg5zDSAADGGA#@@OX+@@-GGDFGGFu@@@@OX.                   ",
"               ...O@@@@rSGGGGSAZCCCCCCCZASSFDDy>jDSASDGGA&@@+O+@@:GGDFGGDr@@@@OX.                   ",
"                ..O@@@@wVGGGGSAZCCCCCCZZSSFFFC7=jDDSZDFGSw@@@@@@#pGGSFGGBw@@@@O..                   ",
"               ...o@@@@8MGGGGSAZCCCCCCCZSDFFFv:$jFDDASFGGb=@@@@#2VGGAFGGB8@@@@oX..                  ",
"                 .O+@@@<nGGGGDSZCCCCCCCASDGGGh&OlGGDSADGGFlq&@=tmGGDSGGGc<@@@+o.                    ",
"                ..X+@@@*gGGGGDSZCCCCCCZADGGGGy#+kFGFDZSFGGGVxlnCGGFADGGGh*@@@Oo..                   ",
"               . ..O@@@#yDGGGFSZZCCCCZZSFGGGG3@+jFGGDSZDFGGGGGGGGFSSGGGDu#@@@OX.                    ",
"                ...O@@@@9NGGGGDSZCCCCZASFGGGF&O+sGGGFSZSDFGGGGGGGDADGGGN8@@@@OX..                   ",
"                 ..O+@@@;jGGGGFSZZCCCZADGGGGb@O#yGGGGDZZSDFGGGGFSSSGGGGj;@@@+O.                     ",
"                 ..XO@@@#yAGGGGDAZZCZZSDGGGDg@O#qGGGGDAZZASSDDSSASFGGGAy#@@@OX..                    ",
"                 ..XO+@@@<lGGGFFSZZCZZSFGGGCr@O#0GGGGDSZZZZASASZAFGGGGl1@@@@O... .                  ",
"                  ..X+@@@$uAGGFFDSZZZZSFGGGm3@O@0DGGGFSZCCCZZZZSDGGGGAy$@@@+X.                      ",
"                  ..Xo@@@@:kGGGGFDAAAADGGGGj;@O@0CGGGFSACCCCCAADFGGGGl:@@@@O...                     ",
"                    .oO@@@#qBGGGGDSAAADGGGGa%@+@9BGGGGAAABCAAASDGGGGB0#@@@OoX                       ",
"                   ..Xo+@@@&iAGGGGFDAAFGGGG0@@+@6bGGGGSAVAVAASDGGGGAi&@@@+oX..                      ",
"                     .XO@@@@=dAGGGGFFSFGGGB<@++@<bGGGGAAAASSDFGGGGSf=@@@+OX.                        ",
"                    . .XO@@@@:gSGGGGGGGGGGc*@@@@*MGGGDDZASDFGGGGGSh:@@@@OX...                       ",
"                     ...oO@@@@,hAGGGGGGGGGs$@+@@#AGGGGSDFFGGGGGGAh>@@@@Oo..                         ",
"                      ...OO@@@@:dAGGGGGGGGw@@+@@@BGGGFFGGGGGGGGZf:@@@@Oo...                         ",
"                       ...OO+@@@=iBGGGGGGF:@@O@@#nGGGGGGGGGGGGBu=@@@@OoX..                          ",
"                        ..XoO+@@@&qkAGGGGN$@@O@@%hGGGGGGGGGGAjw&@@@@Oo...                           ",
"                         ...OO@@@@#:ycAGFj@@@O@@&aGGGGGGGGScy,#@@@@OoX..                            ",
"                          ...oO@@@@@$<yjny@@OO+@&iGGGGGDBjy1$@@@@@OoX...                            ",
"                           ..XoO@@@@@@#=4=@+Oo+@#ySAMcgu8;#@@@@@@OoX.                               ",
"                           ....XO+@@@@@@@@@OOoO+@<rw8<*#@@@@@@@+oX...                               ",
"                             ...XoO+@@@@@+OOXXXO+@@@@@@@@@@@@@+XXX..                                ",
"                              ....XOOO++OOoX.XXoO@@@@@@@@@@@+oXX..                                  ",
"                                ....XOXooX.....XOO+@@@@@@+OoXXX...                                  ",
"                                . ..............XoOO+OOOOoXX.. .                                    ",
"                                    . ...    . ...XXXoXX.... .                                      ",
"                                       .  .    . ........ .  .                                      ",
"                                                   . . ..                                           ",
"                                                  .   .                                             ",
"                                                                                                    ",
"                                                                                                    ",
"                                                                                                    ",
"                                                                                                    ",
"                                                                                                    ",
"                                                                                                    ",
"                                                                                                    ",
"                                                                                                    ",
"                                                                                                    ",
"                                                                                                    ",
"                                                                                                    ",
"                                                                                                    ",
"                                                                                                    ",
"                                                                                                    ",
"                                                                                                    "
};
