/* XPM */
static char *_7601178b814414fa8c8efe15427043aX64EYA4gy5rhvuEV[] = {
/* columns rows colors chars-per-pixel */
"100 100 86 1 ",
"  c black",
". c #101106",
"X c #131309",
"o c #161709",
"O c #1A1B0B",
"+ c #1D1E0C",
"@ c #21220C",
"# c #24250D",
"$ c #28290F",
"% c #292911",
"& c #2E2E10",
"* c #2F2F11",
"= c #333311",
"- c #333410",
"; c #363612",
": c #3A3B12",
"> c #3F3F13",
", c #414214",
"< c #454614",
"1 c #494914",
"2 c #4C4D15",
"3 c #4F5115",
"4 c #525417",
"5 c #545515",
"6 c #5C5E16",
"7 c #5C5E17",
"8 c #5E6018",
"9 c #636516",
"0 c #636518",
"q c #666919",
"w c #6A6C19",
"e c #6F701A",
"r c #73741A",
"t c #76781A",
"y c #7B7D1B",
"u c #7C7F1B",
"i c #81841B",
"p c #85891C",
"a c #8A8D1D",
"s c #898C1E",
"d c #8D911D",
"f c #8D911F",
"g c #92951D",
"h c #91941E",
"j c #95981D",
"k c #96981F",
"l c #999B1F",
"z c #999D1D",
"x c #9A9E1D",
"c c #9C9F1E",
"v c #A0A31E",
"b c #A3A71E",
"n c #A5A81E",
"m c #A6AA1E",
"M c #A7AA1E",
"N c #A8AC1E",
"B c #AAAE1F",
"V c #ADB01F",
"C c #AEB21F",
"Z c #B1B41F",
"A c #A3A520",
"S c #ACAF22",
"D c #AEB220",
"F c #AFB222",
"G c #B0B221",
"H c #B2B620",
"J c #B1B423",
"K c #B2B622",
"L c #B4B820",
"P c #B6BA21",
"I c #B5B822",
"U c #B6B923",
"Y c #B7BA23",
"T c #B7BB23",
"R c #B9BD20",
"E c #B9BE20",
"W c #B9BE21",
"Q c #BBBE24",
"! c #BBC021",
"~ c #BCC022",
"^ c #BDC022",
"/ c #BDC025",
"( c #BEC225",
") c #BFC425",
"_ c #C0C423",
"` c #C0C425",
/* pixels */
"                                                                                                    ",
"                                                                                                    ",
"                                                                                                    ",
"                                                                                                    ",
"                                                                                                    ",
"                                                                                                    ",
"                                                                                                    ",
"                                                                                                    ",
"                                                                                                    ",
"                                                                                                    ",
"                                                                                                    ",
"                                                                                                    ",
"                                                                                                    ",
"                                                                                                    ",
"                                                                                                    ",
"                                            X   .      .                                            ",
"                                          .  . .. . ....                                            ",
"                                     . ....XXXXXXXXX........                                        ",
"                                    . .X.XXoooOooooooooXXX.... .                                    ",
"                                  X ..XXoOoOO@@@@@@@++OOOoXXX..                                     ",
"                                  XXXoOO+@#$$$$$$$$%$$###OOOooX....                                 ",
"                               X.XXoO+@@$$$$%%%%$%%%%$$$$$#@OOoX...                                 ",
"                             X XXoO++$$$$%%%%%%%%%%%%%%$%$$$$@OOoX..                                ",
"                             XXXOO+$$$%%%*->47werreq4,=%%%$$$$$@Ooo.X  X                            ",
"                           . XXo+@$$%%*:39yhxMBGJJJJJJva0>**%%$$#+OoXX X                            ",
"                         . XXXO@#$$$*>7yvVQ)``/^^/^`_/Q/`Ja7:*$$$#+OoXX                             ",
"                           XXO@$$$*:8aB/)^Q_/Q`I^^_/^!Y//)/Ih8>$$$$@OOX                             ",
"                       XXXXOO@$$$=3iJ/)/^^^^/Q^^QWIWE!`^/W/^_Jh5;$$$@OoXXX                          ",
"                       . XXO@#$$;wm^^^W!QZQHDZGJGZVZDJZW!^^^^^^Bt>$$$@OOX                           ",
"                       XXoO@$$*>iT^^^^^THGZZBBMbBmmmBBVVDZTI^!`/Zi2=$$@OOXXX  .                     ",
"                       XXO@$$$1hW!^^EIJVVMnbbvbbvbvvmbbbNVVJI!_!_Yk5*$$@OOX .                       ",
"                     XXoO@$$$2k^W`^IJVmVbvvvvxxxxxxxvxvvvmmmVZIW__Zl4*$$@OOX                        ",
"                     XXO@$$$<g^^^ZZZBMbvvxvxxxlxxxxllxxxvvvvnSVZ^W`Yx5$$$@ooX..                     ",
"                   X.XO+$$$>p__!WTBmmvbxxlvxxxxzxxzzxzxvxxxvvnMVHZ^_Qj2%$$@oX.                      ",
"                    XoO#$$;wY^_YJBMvvvxxxzzzxlzxzzzzzzzxxlxvxvnnBGZQ^Ip:$$#OoX..                    ",
"                  XXXO@$$$5J^^!ZmmbvvxxxzxzxxlzzzzzzzzzzxxxxxvvnmVZW^^Dw$%$#Oo...                   ",
"                   XO+$$$,v)_^ZVSvvvxlxxzzzzzzzzzkzzzzzzxxzzxxxxvbBZI^^b2%$$+OX. .                  ",
"                 XXXO#$$;w_Z_ZJBbvxxxlzzzzzzzzzzzzzzzzzzzljxxxxxvmBGI^^Ii=$$#Oo..                   ",
"                  Xo+$$%,m`_^ISbvxxxzzzzzzzzzzzkzzzzzzzzzzxxxxxxvvmVI^//S5%%$@oX.                   ",
"                XXXO@$%=w`^^YJMmxxxxzzzzkzzzzzzzzzzzkzzzzzllxxxvxxvBDI^^Qa*%$#Oo..                  ",
"                 XOO#$%:l_^^IVbvxxxxzzzzzzzzxxllxxxxlxlxxxxxvxxxxxbmSZ!__H,%$$+oX.                  ",
"               X XO@$$%4I^^WGmmxvxxxzzkzzzzzxxxxxxxxxxxxxxxxxvvvxvxAmVZ^QQq%$$@OX..                 ",
"               XXXO@$%%p`/QYVbvxxzxxzzzlzzzzxvxxxxxxxxxxxxxnbbnMbmbxbBJ^/`h&%$#Oo. .                ",
"                 OO#%%;A/W^YVmvxxxllzzzlzzxxxvxvxvxxxxlxxvnbMMZGVBmmbmG^^^J>%$$+o.                  ",
"                XX+$$%2WWQWHMbcczzzzzzxxxxxvvvvvvvbxxvxvvbNZHHYYIZCBmmZZ^/`4&%$+oX.                 ",
"               XXO+$%%r/_/WHSAcxxxzzzzxxxxvvnbMMMbmxvxvvbBVZY^QQ^WTLBmBJ^/`w&%$@OX.                 ",
"               XXO@%%%aT_/IZbvccxxzzzzxxxvvnnnVVVMbbvvvbmVZE^^^ZT^^EDBmVW^/u=%$@OX..                ",
"             . XXO@$$*fT_QHBbvxxxlzzzxxxvvAMVGHIGZSMbvbmVGW_ZVjgkCE^IVmDI^)a;%$#+X.                 ",
"               .XO#$%=hT/^JVmvxxxllxxxxxvbBBZYviZZZCbbmVZL^Vt>*$-<uGZHVNI!`k>$$$+XXX                ",
"             ...X+#$%;k/^^ZVbxcxxxxxxxxvbBVHYZi>k!ZZVmNDI^V9$$$$$$-eZ^ZmZ^/c<%$#Oo                  ",
"               .oO#$%;l/)^IVmxcxzjxlxxvbBBZWZm3&8^!ZCNVE!Ly*$$$$$$$>aWIBV^Wc<%$@OXXX                ",
"              ..X+#$%;l)Z)ZVAvcxxlxxxvvmVZZ!Zu$$>hTTCNVZ!N2$$$@@@$$$5GIVJTQk<%%$@XX                 ",
"              X oO#$%;dW_!ISbvcxxzzxxvbMZZ__v<$$&8Z!ZZVZ^k>$$@OOO@$$1bZBVZ!d,$$@OO.                 ",
"             . XXO#$%=iQ/)LDbvxxxxzxvvMGYQ_Hu$$$$>j!_ZVZEa;$$@XXO$$$<bZBV_)p>%$$+X.                 ",
"               .XO@$%*tI//TCmvxxxxxxvbZZ!!Qv1$$$$$8E!TVVEm<$$$OO@@$$2MZBVE_y;%$@OXX.                ",
"               XXO+$%%eJ//!ZmvvxxxxxbMZZ!!Zu$$$#$$>g_IVNZm6$$$$$$$$-wZZbZEEt&%$@OX                  ",
"             .  XX@$%%8B`_ZZMnvxlxvvbMHY^^v<$$@#$$$7!^JmVLd>$$%$#$$1xIBBI^S9%$$@oX..                ",
"               .Xo@#%%2k^__IVbxvxxxbMGY`^Ju$$$+O#$$,h^ImmVZp>*%%-$2xZZmGY^x3%$$Oo..                 ",
"                XXO@$%;y_W^YZbvxxccbMZ_QQv1%$#OO@$$&7Z^JNNDTxw1<4rB_WMMZ^^s:$$#Oo.                  ",
"                 XO@$$*8S_QWGMbxvxAMGYY_Dy%%$+OOO@$$,k^WVNDI^)^V^_^ZJMVY^Jr*$$@OX. .                ",
"                XXoO#$%<h//^ZZMvxxmBY^^/v<%%$OoXO@$$*7^!IVVZIE^^Z_!ZMMH^/v4%$$+oX.                  ",
"                  XO@$%=qJWWZZBmvvmVI^/Iy%%$#OX.o+#$%>h!^LVVCTE^QZZMMZ^QIi=%$#Oo.                   ",
"                 XXO+$$$1x/`YYBbvbBG^Q/x<%$$+oo..O@$$*8!^!ZCBVCJVBMnBY_Qb4%#$@oX.                   ",
"                  XOO#%%=q^^QYGMMMZZ^QYu%$$$OX...O+$$%,h^!ZZmbbmnnnVI^QHi;%%#Oo....                 ",
"                  XXo@#$$<x`_YZVVBV!!/c1%%$OoX...oO#%$*6/`^ICmvxxbVZ!^/v1%$$@OX   .                 ",
"                   XX+@$$*5Z^_IIJZZ!^Iu%%$#OoX  .Xo+$$$>h/Y^DBmvmMZE!^Dw*$$@Oo...                   ",
"                   .XXO#$$-t^^^^TZI!^c1%$$#OX..  XoO#$%*7I^^IVBBBZZ!^Wa;$$#+oX.                     ",
"                   XXXO+@$$;a^^^!!!^Ly%%$#Oo.    .Xo+$$%>h_W^GBVZI^^Tk1$$$@OX..                     ",
"                    ..XO+#$$;k!`I_^^v1$$$+oX..    .XO@$$*7Q_WIIIW_^Iv2$$$@OX.. .                    ",
"                     ..oO@#$$;m^_^_Ju$$$@OoX.  . ..XX@$$%>hW_W^`^^^x4$$$@OXX..                      ",
"                     ..XoO+#$$;vW_Wv1$$#OOX.      ..XO@$$*7YQ_`W_Ik5$$$@OoXX.                       ",
"                      ...oO@$$%=aJJu$#@+ooX      . .XOO$$$,h_^//Lh1$$$@OOX                          ",
"                      . .XoO+#$$*rh<$@@OXXX .       .XO@#%*6^WIMi;$$$@OXX.X                         ",
"                         .XoO@#$$$>$@+OXX X       . XXXO+#$>hJh5*$$$@+OXX  .                        ",
"                        . .XoO+@###@OOX..             XXO+@$39;$$$#@OoX.X                           ",
"                           .XXoO++OOOoX .           . .XoO+$*$$$$#@OXXX                             ",
"                            ..XXooooXX X              X.XXOO@###+OOoXX                              ",
"                            . XXXXXXX X                  XXOOO+OOOX.X                               ",
"                          .  . .. ..                     XXXoooXXX..  .                             ",
"                                 .                      X .X..X...                                  ",
"                                                          . X X . .                                 ",
"                                                                                                    ",
"                                                                                                    ",
"                                                                                                    ",
"                                                                                                    ",
"                                                                                                    ",
"                                                                                                    ",
"                                                                                                    ",
"                                                                                                    ",
"                                                                                                    ",
"                                                                                                    ",
"                                                                                                    ",
"                                                                                                    ",
"                                                                                                    ",
"                                                                                                    ",
"                                                                                                    ",
"                                                                                                    ",
"                                                                                                    ",
"                                                                                                    ",
"                                                                                                    "
};
