/* XPM */
static char *_f27f382a4414f93bb2a68468aaf3feakoW089vFIVYGjR3b[] = {
/* columns rows colors chars-per-pixel */
"100 100 87 1 ",
"  c black",
". c #101106",
"X c #131309",
"o c #1A1B0B",
"O c #161709",
"+ c #1D1E0C",
"@ c #21220C",
"# c #28290F",
"$ c #24250D",
"% c #292911",
"& c #2F2F11",
"* c #363612",
"= c #3F3F13",
"- c #454614",
"; c #333311",
": c #2E2E10",
"> c #3A3B12",
", c #4F5115",
"< c #636518",
"1 c #73741A",
"2 c #7B7D1B",
"3 c #85891C",
"4 c #8D911F",
"5 c #96981F",
"6 c #999B1F",
"7 c #898C1E",
"8 c #7C7F1B",
"9 c #6A6C19",
"0 c #525417",
"q c #9C9F1E",
"w c #ACAF22",
"e c #B9BD20",
"r c #C0C423",
"t c #BDC022",
"y c #B9BE21",
"u c #BEC225",
"i c #C0C425",
"p c #B1B423",
"a c #91941E",
"s c #666919",
"d c #545515",
"f c #81841B",
"g c #A0A31E",
"h c #BBC021",
"j c #B9BE20",
"k c #BCC022",
"l c #BDC025",
"z c #B2B622",
"x c #494914",
"c c #A3A520",
"v c #B5B822",
"b c #B7BA23",
"n c #B1B41F",
"m c #ADB01F",
"M c #B0B221",
"N c #AEB21F",
"B c #B2B620",
"V c #B6B923",
"C c #4C4D15",
"Z c #A8AC1E",
"A c #A5A81E",
"S c #A7AA1E",
"D c #A6AA1E",
"F c #B6BA21",
"G c #AEB220",
"H c #B4B820",
"J c #9A9E1D",
"K c #AAAE1F",
"L c #A3A71E",
"P c #95981D",
"I c #636516",
"U c #AFB222",
"Y c #999D1D",
"T c #6F701A",
"R c #333410",
"E c #92951D",
"W c #8A8D1D",
"Q c #8D911D",
"! c #5E6018",
"~ c #76781A",
"^ c #5C5E16",
"/ c #5C5E17",
"( c #BFC425",
") c #414214",
"_ c #BBBE24",
"` c #B7BB23",
"' c white",
/* pixels */
"                                                                                                    ",
"                                                                                                    ",
"                                                                                                    ",
"                                                                                                    ",
"                                                                                                    ",
"                                                                                                    ",
"                                                                                                    ",
"                                                                                                    ",
"                                                                                                    ",
"                                                                                                    ",
"                                                                                                    ",
"                                                                                                    ",
"                                                                                                    ",
"                                                                                                    ",
"                                                                                                    ",
"                                                                                                    ",
"                                        .  . .   X X .   .                                          ",
"                                   ..     .. X..XX X....  .                                         ",
"                                    .  ....XXXXoXXOXXXXX.....  .                                    ",
"                                  . ...XXOOOoo+o@oo++ooOOOXX... .                                   ",
"                               .  . .XOOooo@@@#@#@$#$@@++ooOOX....                                  ",
"                                ...XOOo+@$######%########$@+oOOX.. .  .                             ",
"                              ...XOoo@$#####%%%%%%%#%%%%####$@ooOX..                                ",
"                             ...XOo@$#####%%&*==---=*;&:%%####$+oOXX .                              ",
"                          .  XXXo+@###%%:>,<123456657890=&%%%###$oOOX X                             ",
"                           X XXo@$##%%;,17qwerrttyuiuuiipas=:%###$@OoXX                             ",
"                           .XOo@###%;dfgptttheyejtkkttulkikz7d&%%##@ooX X                           ",
"                         XXXoo@###:xfcvlttbvnmmmMNBvVytthtlulwfC:###@ooXX                           ",
"                         .XXo@##%*9gvtttbMMZAZZmNSDSmNBFhtthllVg9>###@ooX  XX                       ",
"                     .  XXoo@###x7GltttpmDAmnHHevvBNADZNMvejtlttw3C###@oOXX                         ",
"                       XXO+@###C5jtttVMSSSMFjAJgMyeMNKLADKNBvttttvPd&##@ooXX                        ",
"                      XXXo@###dgbttjvmSSMHjJIC-xd3BjFMKDgLDKUHVbttt6d:##@oOXX                       ",
"                     ..Oo@###dJbthjBmASMjrYx&###:>TptjzKAJLAZmMHbhrb6d&##@oO..                      ",
"                   . .Xo@$##x5hthHMKASmjkLC#######R8jkVNDLqggAZmnHhry5C:##+oO...                    ",
"                    .Xoo$##*EVtrFNZAAKHtr1:##@#@###-NkyBKAgqJgAAmMebrVf=##$+OX..                    ",
"                   ..Xo+##:fzrteBKAJAmjyy,:##@oo@##R5btFmAJqJgggAZMhttB1*##$oO..                    ",
"                    .Xo$##dSubrVNZgJAMttN-%##oXo@###WyybmSgqgJJJAAmByyuKd:##@oX. .                  ",
"                   XXO+$#*ablrtHmZAgANytkx%%#oXo@##:EttVNAgJJJJJgADNVrikQ=###oOX.                   ",
"                    .Oo$#<pytrybMmZALmFyr9&###@@###=mttHKAgqJJYJqgAKByytz!:%#@oO..                  ",
"                   X.Oo@:,atrtrbtHMNSKNbkJ=########~jtVBSLJqJJJJJqgAmvttra>%##oOX.                  ",
"                    XXoo$:=^abyrykkbnKKBFF3=#####:ImhjBNLAqJYYYYqqgASBVttv/&##@oX..                 ",
"                   ..XXo+@#:=^alrkbtjBKZmMMQ^-*=C2mtVBNDAqJJYJ5YYqJgANbkllW&##$oX..                 ",
"                     XXXo+$##&=/abuuhhvmZZNBSAW6SHtHMmSLgJJJYYYYJ6JgAmBky(p=%##oOX.                 ",
"                    X  XOo+$##%&=/altttbNZAKHjjthhVBmDAgqJJJYYYYYYJggDMylli<%%#$oX.                 ",
"                       .XXo@####%&=/akytypSSZmHHHFMmScggqJJJYYYYYJqqgAmFtll7%##$oX...               ",
"                       X.XXoo@###%#&)/EtttvBmmZmmKDAAggJ6YYYYYYYYYJqgLmHiblg;%#$oO..                ",
"                          XXoo@@####%&=/ayttVbBMZZAAggJqqJYJYYYYYYYqJAKBhhuG)%##+O..                ",
"                        . X.XXXo+$####%&=/EythyHnmKDAggqqYYY5YYYYYJ6gAZMjtrz0%%#+O..                ",
"                            ..XXOo+$#####:=^EhheFBNKDLqJJJJJYYYYYYYYJgAnblips%%%@OX                 ",
"                          .  ...XOOo+@$####:=^EeVjBBKALLJJJJYYYYYYYJJgDNbrtpT%%#@OX.                ",
"                            . . .XXOoo+@@####:=^EkjHNZAggJJJYYY5YYYJJLDnbtup1%%#@OX                 ",
"                                  ...XOoo+@####:=^EjMNDgJJJJYYYYYYYJJgZMtttp1%##@OX..               ",
"                              .    ....Xooo$$#:##:=fHmSggJJYY5YYYJYqJLAptbtpT%%#@OX.                ",
"                                 . ..XXOoo+@#####CfgBmDgJqJYYYYYYYJ6JLSMtrlS9%%#@oX                 ",
"                               . .XXXOoo+$#####-8gHHMSAgqqJJYYYYYYYJJgZMbliS/%##@OX.                ",
"                           .  ...XOOo+$######x2gHjFMmDAgqqJJYYYYYYYqgAKMuliq0%%#oOX X               ",
"                             .XXOooo###%%%#-2gzteHMZSAgqJYYYYYYYJYJqgAmvkuia=%##oOX                 ",
"                          XXXXOOo@$###%%%x8gHttreBmZcggJJYYYYYYYYYqggAmFkkl2;%#$OX..                ",
"                           XOoo+$##%#%%-2gpthhyFHmZAggqJYYYYYYYYJY6qgSMjkkG<&##@oX.                 ",
"                        ..XXOo@#%%%%%-2gUttthhbMKZAgg6qJYYYY5YYYYJqgLmBkkrq,%##+O..                 ",
"                       X .Xo+$##%%%x8YvlrtrbFBMSAAgJq6YJYYYYYYYYYqqgKNbkuu2>%#@oXX.                 ",
"                      X XXo@@###%x8qVlllbtFHNKSAggJJqJYYYY5YYYYYYqgASBtyuK/&%#@oX.                  ",
"                       XOo+@$##x2qvl_tttbHMSSAgggJqYJYYYYYYYYYYYYggSNvttu7=%##+O. .                 ",
"                      XXoo@##x8gHtttttvvUSSAgggJJqJYYYYYYYYYYYYJggAmMjttp/&%#+oX..                  ",
"                     .XOo@#-8gzkkhkjFMmKDLLgqqJJJYYYYYYYYYJJJJqqggSmVtttf>###+OX                    ",
"                     .XOo$=EzyrkjVBNNDDALqqqqqYYYYYYYYYYYYJJqqqggSmHkkuA,&##+oXXX                   ",
"                    . XO+$#1zrtrhFNKAAgJqqqJJJYYY5YY6JJYJYJqJJggSKBjrkb9;##@oOX                     ",
"                     .XO+$#:WbrbhFMKDggqqqJ6YYJJYYYYJJJYJJqqJgAKSMbkyyf*##$+oX.                     ",
"                     .XXo@##;gtittHmSAAgqqqqJJJJJJJJJqJqJJqgAASmHbkkta=###@OXXX                     ",
"                      XXO+$#%;SyttVBMKSAAgJgqqqqqqqqJqqqggAADmMHjrrk5x&##@oXX                       ",
"                     . .Xo@$##*5ttrbbvNmSALAgggggJqggggAAASmpvjtkkrEC##$@oXXXX                      ",
"                      ..XOo+###*WkkktbeHMNmDSAAAALAAAAKSKNMvbktkkb3-###@oXX                         ",
"                        .XOo@$##*~ertiykjVvBBNwKmKKmmmBBVbytttyrz9=###@ooXX.                        ",
"                     .   .XOo+$##Rd6tlyltttjjVvvHHHBvVjykkkttligd*###@oXX                           ",
"                          .XOo@$##:-s6BuiykulluyttttyuutyutriD9=&###@oOXX .                         ",
"                         . ..Oo+@###;xsawuk(llluyutuuuuyuuV59);%###+oXX X                           ",
"                            .XOo+$##%#;-!25Kp``yiulVbblyc30>&%###$+oOXX.X                           ",
"                           ....Xoo@$##%%&*C!T~f4665a471C*%%%%###@ooXX                               ",
"                             ...XX+@$####%%%%&;****;&%%%%%####$+oOXXX                               ",
"                               .XXXOo+@$##%%%%%%%%%%#%%#%##$@+ooXX.                                 ",
"                                X.XXoooo@@$#############$@@ooOXXX X                                 ",
"                                   XXXXOoo@@+@$$$$$$@$++ooooXXX X                                   ",
"                                     X XXXOXoooo+o+ooooXoXXXX X                                     ",
"                                       X XXXXXXOXOXXXXXX X  X                                       ",
"                                          . X.X ....XXX  XX                                         ",
"                                               X. .                                                 ",
"                                           .  .   . .                                               ",
"                                                                                                    ",
"                                                                                                    ",
"                                                                                                    ",
"                                                                                                    ",
"                                                                                                    ",
"                                                                                                    ",
"                                                                                                    ",
"                                                                                                    ",
"                                                                                                    ",
"                                                                                                    ",
"                                                                                                    ",
"                                                                                                    ",
"                                                                                                    "
};
