/* XPM */
static char *_feb8119b87045f2cc414067813c763ee6ES2Q8a6HJ0Wbhl[] = {
/* columns rows colors chars-per-pixel */
"100 100 86 1 ",
"  c black",
". c #101106",
"X c #131309",
"o c #161709",
"O c #1A1B0B",
"+ c #1D1E0C",
"@ c #21220C",
"# c #24250D",
"$ c #28290F",
"% c #292911",
"& c #2E2E10",
"* c #2F2F11",
"= c #333311",
"- c #333410",
"; c #363612",
": c #3A3B12",
"> c #3F3F13",
", c #414214",
"< c #454614",
"1 c #494914",
"2 c #4C4D15",
"3 c #4F5115",
"4 c #525417",
"5 c #545515",
"6 c #5C5E16",
"7 c #5C5E17",
"8 c #5E6018",
"9 c #636516",
"0 c #636518",
"q c #666919",
"w c #6A6C19",
"e c #6F701A",
"r c #73741A",
"t c #76781A",
"y c #7B7D1B",
"u c #7C7F1B",
"i c #81841B",
"p c #85891C",
"a c #8A8D1D",
"s c #898C1E",
"d c #8D911D",
"f c #8D911F",
"g c #92951D",
"h c #91941E",
"j c #95981D",
"k c #96981F",
"l c #999B1F",
"z c #999D1D",
"x c #9A9E1D",
"c c #9C9F1E",
"v c #A0A31E",
"b c #A3A71E",
"n c #A5A81E",
"m c #A6AA1E",
"M c #A7AA1E",
"N c #A8AC1E",
"B c #AAAE1F",
"V c #ADB01F",
"C c #AEB21F",
"Z c #B1B41F",
"A c #A3A520",
"S c #ACAF22",
"D c #AEB220",
"F c #AFB222",
"G c #B0B221",
"H c #B2B620",
"J c #B1B423",
"K c #B2B622",
"L c #B4B820",
"P c #B6BA21",
"I c #B5B822",
"U c #B6B923",
"Y c #B7BA23",
"T c #B7BB23",
"R c #B9BD20",
"E c #B9BE20",
"W c #B9BE21",
"Q c #BBBE24",
"! c #BBC021",
"~ c #BCC022",
"^ c #BDC022",
"/ c #BDC025",
"( c #BEC225",
") c #BFC425",
"_ c #C0C423",
"` c #C0C425",
/* pixels */
"                                                                                                    ",
"                                                                                                    ",
"                                                                                                    ",
"                                                                                                    ",
"                                                                                                    ",
"                                                                                                    ",
"                                                                                                    ",
"                                                                                                    ",
"                                                                                                    ",
"                                                                                                    ",
"                                                                                                    ",
"                                                                                                    ",
"                                                                                                    ",
"                                                                                                    ",
"                                                                                                    ",
"                                                                                                    ",
"                                          .   . X X   . .  .                                        ",
"                                         .  ....X XX..X ..     ..                                   ",
"                                    .  .....XXXXXoXXOXXXX....  .                                    ",
"                                   . ...XXoooOO++OO@O+OOoooXX... .                                  ",
"                                  ....XooOO++@@#$#@$@$@@@OOOooX. .  .                               ",
"                             .  . ..XooO+@#$$%$$$$$%$$$$$$#@+OooX...                                ",
"                                ..XoOO@#$$$$%%%%$%%%%%%%$$$$$#@OOoX...                              ",
"                              . XXoO+#$$$$%%&&=;><<<>>;*%%$$$$$#@OoX...                             ",
"                             X XooO#$$$%$%*>5wyakllkdput03:&%%$$$@+OXXX  .                          ",
"                             XXOo@#$$$%&>qgJ))((`(E^^__!Dcar4=%%$$#@OXX X                           ",
"                           X XOO@$$%%&5aJ^_^((^(^!^!Z!Z_Q^^Jci5=%$$$@OoX.                           ",
"                           XXOO@$$$&2iDQ)(^!^^EUIJVZVZVZII^^(IAi1&$%$@OOXXX                         ",
"                       XX  XOO@$$$:wAI(()_!!PZVVNNNVVNNMMGGT^^^Ivw;%$$@OXX.                         ",
"                         XXoO@$%$2pDQQ(QZ!ZJCNMMVZII!ZZZVMMBJ^^^(Da1$$$@OOXX  .                     ",
"                        XXOO@$$&5jI^^^QICCNMMbNZGE!Dvxm!IZMMMGI^^^Ek2$$$@+oXX                       ",
"                       XXoO@$$&5lQ^^TTZGSNbvNNJIEZp51<2qcZIGMMDIE^^Iv5$$$@OXXX                      ",
"                      ..oO@$$*5lT__TZZBNMbxbNI!!Je:&$$$*1l)ZZNMBZ!!^Pc5$$$@Oo..                     ",
"                    ...oO+$$&2k!_QZZZNMvvcbMCI^Pu-$$$$$$$3b!!ZMMVDZ!^!k1$$#@OX. .                   ",
"                    ..Xo+@$$>iI_TZIBnnvxcvbVZ!!D<$$$@$@$$&t)_ZNMbNZZ))Pg:$$#OOX.                    ",
"                    ..oO$$$;rJ^^!ZNMvvvxcxbVP^Tk-$$@OO@$$$3!)ZBncNCZZ__Ii$$$+OX..                   ",
"                  . .XO@$$&5S(P!ZBnMxxxvcvNVUEEa$$$@OXO$$%<C!_ZMlvNCI_I(M5$$#OX.                    ",
"                   .ooO$$$>d^`_IZMnvxxxxxvMVU^^g&$$@OXO$%$1^_ZZMcMNVI^_(Ig;$#+oXX                   ",
"                  ..oO@$$&8I^E!ZBMvcxlxxcvMNI^^D>$$$@@$$$=w_!IBMMMVGTE)^!J0%#Oo.                    ",
"                  .XoO$$$:d)^^IVnvxxxxxxclbNJU!!t$$$$$$$$>l^TVNMZJZ^T_^(^g3&@Oo.X                   ",
"                 ..XO@$$&7U(QTZNnvccxzzzxlMvVZ!!Vq$$$$$$>pIZZVVCU!^E`EIg6>&#OOXX                    ",
"                 ..XO#$$&a(QQTVnvlcxljxzxxcMMVZP!Vu3>;<6dDJVVVZE(U!`Qg6>&$@+OXX..                   ",
"                 .XoO$$%>J(EQZZMvxlxzzzzxxxvMMVDZ_ZNlaNNZDNNDI!!((Ig7>&$$#+OXXX                     ",
"                 .XO#$%%0`((ZINvvxxxzzzzxxxccMMVZI!)_Z!ZNMNVP^^!~g8>=%%%#+OoX  X                    ",
"               ...XO#$$%a(Q^ZVMvxxxzzzzzxxxxvvnMVZIZIZCNMNF!^!!h6>*%$$$$@OXX.                       ",
"                ..oO#$%=v^U`ZVbccxxxzzxxxxxlxvcMMMVVVNVVJI(^^g7,*$%%$$@OOXX.X                       ",
"                ..o+$%%,C)!!PVbxclxxzzzlxzxccxvvbMNNDZII!^Pg6>*%$$$$@@OOXX                          ",
"                ..o+$%%5J)!!DVMvlxxxzzzjzzzlcvvMMVVZI!^!!g6>*%%%$$#+OXXX.X .                        ",
"                 Xo@%%%qJ`(IZMcczzzzzzzzxxxxxcbNNCZPZ)!g8>&$$$$$#+OoXX..                            ",
"                .Xo@$%%eJ^`UVMvcxzzzzzzzxxxxbbbVIZ!P!d8>&$$$$@@+OooX...  .                          ",
"                 Xo@$%%rJ(^TZMnxxzzzkzzzxxxvvMNCIP!g6>&$$$$@@+OOoXX. . .                            ",
"               ..Xo@$$%rJ^^^GNvxxzzzzzzzxxxxvMCJ!g6>&$$$$@+OOoo...                                  ",
"                .Xo@%%%wJ^TQInvxczxzzzkzzxxvvMVZi>&$$&$##OOOo....    .                              ",
"                 XO@$%%wM(_QGMnxzlzzzzzzzxcxvMVJvi3$$$$$@+OOo.o.. .                                 ",
"                .Xo@$$%6M`QYGMvxxzzzzzzzxxccvMMGZZMi<$$$$$#+OOo.XX. .                               ",
"               X ooO$%%4x``(GNMvczzzzzzzxxcccMMVJZ!Zvy1$$$$$$#OOooX...  .                           ",
"                 XoO$$%>g))!IVMvcxzxzzzzzzzxcvMMNJZ!^Ivu<$%%%%$$OOOoXX.                             ",
"                ..Xo#$%;y(!^IVMvvczzzzzzzzzxxvcnNCZ!_^^Zvu1%%%$$$#@OooXXXX                          ",
"                 .XO@$$&0D^!ZIMcczzxzzzzzzzzxcvvMNVZZ^!!^Jvy<%%$%$$#+OOoX                           ",
"                 ..o+$$%4l_!)ZVMvclxzzzkzzzzxczccMNNJE!)^^^Dvy<%%%%%$@OoXX..                        ",
"                 .XXO@$%:y((!IDNvcczzzzzzzzzxxlccvMMMDZZP`^^(Ilu1%%%$$#+OX. X                       ",
"                  .XO@$%&6N(E^IMbvczzzzzzkzzxxxlxxvcMMNJIP^Q(Q(Icy1%$$$@@OXX X                      ",
"                 . .o+$$%>a(^^IVNvvzzzzzzzzzzzzxxcxvvvMNNDII^^^Q(Icy1$$#@+OoX                       ",
"                  ..XO+%%=7J^^!ZNMvvxzzzzzzzzzzxxxcxlvvcMMMDII^^^^^Ivu1$$@OOXX                      ",
"                    Xo+$$$:i^Q^ICNvvccxxxxzzzzzzzzzxxxccvMbMNVVP!!!!^Ivu<$@OoX.                     ",
"                   XXXO+$$&3M(^^ZVNvvcccxxzzzzzzzzzzzzcccccbbNMVCZI!!_!Jg>#OoX.                     ",
"                     XoO@$$=wI^)!ZNMvvlccxzxxxxlzzkzzzxxxcccxvMMVVP!_^)Jr$#+oX .                    ",
"                     .XO+#$$;iEE^IJMNMvcccxxxxxxzzzzxxzzllcccvcNNJP!P)Pa&$#+oX.                     ",
"                     XXXo@$$%>d^!^IIVMMMvclccxcxxxxxxxxxcccxvMnMVI^^`^v-$$@OXX.                     ",
"                       XXO@$$=1k^__EIGNMMbvvcccxccccccccvcvMnMNGJI^^!M=%$#+oXX                      ",
"                      XXXXO@#$$2g_^^^ZIJVNMMbvvvvcxvvcvvMvMNSVITP_^^k;$$#@OX. .                     ",
"                         XXO#$$$<pE!)_^IIVVNNVbbMMvMMMbMMVVJEZT^^^!a;$$$+OoX..                      ",
"                        .XXOO@$$$>wJ_!Q^(EQIZISDVVVVSSVIZII!EE`^_Zy;$$#@OoX.                        ",
"                           XXO@$$$;5v)(^Q^E!^ZIUZZIZUUIP!!^!(E(Ql5;$$#+OoX.   .                     ",
"                         . XXoO@$$$*>wM)_^(E))(E^!!^~(/Q((E`(Jlq<&$$#@OoX.                          ",
"                           X XXO+$$$%-,wkI((!^(((!)!///((E(Dgq1=$$$@+Oo.. .                         ",
"                           X.XXoO+#$$$%*:5pAE(IUI(()EUTJSky8<-$%$$#+OoX.                            ",
"                               XXOO@$$$%%%%;2rafgkllfite82;&%%$$$@OOX....                           ",
"                               XXXoO+#$$$$%%%%%&=;;;;-*%%%%$$$$#+OoX...                             ",
"                                 .XXOO+@#$%%%%%$%%%%%%%%%%$$#@+Ooo.X.                               ",
"                                 X XXXoOO@@#$$$$$$$$$$$$$#@@OOOOXX.X                                ",
"                                   X XXXOOOO++#@######@+@@OOoXXXX                                   ",
"                                     X XXXXOXOOOO+O+OOOOXoXXX X                                     ",
"                                       X  X XXXXXXoXoXXXXXX X                                       ",
"                                         XX  XXX.... X.X .                                          ",
"                                                 . .X                                               ",
"                                               . .   .  .                                           ",
"                                                                                                    ",
"                                                                                                    ",
"                                                                                                    ",
"                                                                                                    ",
"                                                                                                    ",
"                                                                                                    ",
"                                                                                                    ",
"                                                                                                    ",
"                                                                                                    ",
"                                                                                                    ",
"                                                                                                    ",
"                                                                                                    ",
"                                                                                                    "
};
