/* XPM */
static char *_8be8008d91e4495a889c552c43afd6bvq8qBiaEAr1RrS9i[] = {
/* columns rows colors chars-per-pixel */
"100 100 86 1 ",
"  c black",
". c #101106",
"X c #131309",
"o c #161709",
"O c #1A1B0B",
"+ c #1D1E0C",
"@ c #21220C",
"# c #24250D",
"$ c #28290F",
"% c #292911",
"& c #2E2E10",
"* c #2F2F11",
"= c #333311",
"- c #333410",
"; c #363612",
": c #3A3B12",
"> c #3F3F13",
", c #414214",
"< c #454614",
"1 c #494914",
"2 c #4C4D15",
"3 c #4F5115",
"4 c #525417",
"5 c #545515",
"6 c #5C5E16",
"7 c #5C5E17",
"8 c #5E6018",
"9 c #636516",
"0 c #636518",
"q c #666919",
"w c #6A6C19",
"e c #6F701A",
"r c #73741A",
"t c #76781A",
"y c #7B7D1B",
"u c #7C7F1B",
"i c #81841B",
"p c #85891C",
"a c #8A8D1D",
"s c #898C1E",
"d c #8D911D",
"f c #8D911F",
"g c #92951D",
"h c #91941E",
"j c #95981D",
"k c #96981F",
"l c #999B1F",
"z c #999D1D",
"x c #9A9E1D",
"c c #9C9F1E",
"v c #A0A31E",
"b c #A3A71E",
"n c #A5A81E",
"m c #A6AA1E",
"M c #A7AA1E",
"N c #A8AC1E",
"B c #AAAE1F",
"V c #ADB01F",
"C c #AEB21F",
"Z c #B1B41F",
"A c #A3A520",
"S c #ACAF22",
"D c #AEB220",
"F c #AFB222",
"G c #B0B221",
"H c #B2B620",
"J c #B1B423",
"K c #B2B622",
"L c #B4B820",
"P c #B6BA21",
"I c #B5B822",
"U c #B6B923",
"Y c #B7BA23",
"T c #B7BB23",
"R c #B9BD20",
"E c #B9BE20",
"W c #B9BE21",
"Q c #BBBE24",
"! c #BBC021",
"~ c #BCC022",
"^ c #BDC022",
"/ c #BDC025",
"( c #BEC225",
") c #BFC425",
"_ c #C0C423",
"` c #C0C425",
/* pixels */
"                                                                                                    ",
"                                                                                                    ",
"                                                                                                    ",
"                                                                                                    ",
"                                                                                                    ",
"                                                                                                    ",
"                                                                                                    ",
"                                                                                                    ",
"                                                                                                    ",
"                                                                                                    ",
"                                                                                                    ",
"                                                                                                    ",
"                                                                                                    ",
"                                                                                                    ",
"                                                                                                    ",
"                                                                                                    ",
"                                                                                                    ",
"                                                                                                    ",
"                                                                                                    ",
"                                 . . X X .                                                          ",
"                                  ...X..X. X                      .                                 ",
"                             .  ..XXXoooXXX                     .. .. .  .                          ",
"                               X.XOOO+OOOXX                  X XXXXXXX .                            ",
"                              XXoOO+###@OOXX.X              X XXooooXX..                            ",
"                             XXXO@#$$$$$$++oX. .           . XoOOO++OooX.                           ",
"                           X.XoO@#$$$;94$@+OXX             ..XOO@@##@+OoX. .                        ",
"                        .  XXO+@$$$*5hJh,$#+OXXX .       X XXO+@$,$$$#@OoX.                         ",
"                         X.XXO@$$$;iMTW^8$$#@OX.       . XXXO@@$<hr*$$#+OoX. .                      ",
"                          XOO@$$$1gI`QQ_h>$$$OOX. .      Xoo+@#$uJKa=%$$@Oo...                      ",
"                       .XXoO@$$$5kI_T___Y7*$$@OX..      .XOO#$$1v!_Pv=$$#+OoX..                     ",
"                      ..XXO@$$$5xQ___^W_Wh>%$$@XX.. .  .XoO@$$$uJ_^_^n;$$#@Oo..                     ",
"                    . ..XO@$$$2vTQ_ZTZTT_/7*$$@OX.    ..Xo+$$$1v^^_T`Wk;$$#+OX..                    ",
"                     ..XO@$$%2zT^^ZZZCJ^W`h>%$$+oX.    .oO#%%%yY!Z)!)^^a;%$@+OXXX                   ",
"                     .Xo+#$$;aZ^^ZCNNNZZ^^Y7*%$#OoX  ..XO@$%%1xW^YZ!^^^^t-$$#OXX.                   ",
"                   ...oO@$$*wZ_^^CNmvnNZWT)h>$$$+oX.  XoO#$%%uYQQZZGZP_!W4$$$@+XX                   ",
"                 .   XO@$$%1vQ_ZZVmxxvnCW^^^7*$$#Oo...XoO$%%1c^^WZNNZZW^_x1$$#@oXX                  ",
"                 ....oO#$%=iY^^YCnnnnnbnZZ)^h,%$$+O...XO$$$%uYQQTZnnMZTQQ^q=%%#OOX                  ",
"                   .Xo@$$%5n^^YBnMNCGCCNVZ!)!6*$$@OX.Xo+$$%<x/^^GMnvnBIT`^x1$$$+OXX                 ",
"                   .oO#%%=iI^^GMMCZ^^WTCCNY^Wh>%$#+o.XO#$%%yY^^YBMvvnMCWWWJq=%$@OX                  ",
"                  .Xo+$#%4vQ^JMMIZ^W^^WTJNBT^^6*$$@OXoO$%%<bQ^QIBnxxvnZZ^/_h<%$#OoXX                ",
"                . .XO@$$*rJ^TCNGZ)_!ZQ_^ZCMCW^h>$$@OOO+$%%yF_TTGMnxccAMGW^)F8*$%@OX                 ",
"                  .oO#$$:aQ^GnCZ_Nr4<1wxWJNNJ^W6$$$+O+#$%1b^QQZMAxxcxbnCU^W/y;%%@OXX                ",
"                 ..oO$$%3x^WGnGZx2$&%%&>pJCnnY!g,$$@O+$$$uG^_ZJMnxcxcxnSYW!!k2%%#@oX.               ",
"                ..Xo@$$%0S^YNCYx1$$$$$$$,dZNNZ^!8&$$#@$$<vQ^QZMMAcxlcbnnJW))N8%%$@XX  .             ",
"                  XO@$%*rW^ZNZZ9&$$$$$$$$6NZNZY^g>$$#$$$uZ^^WCMvxxxxxcbMZZ`)Fe%%$+OXX               ",
"                .XXO@$%;u_ZZNZN2$$@@OO$$$<N^CCP^^6$$$$$1b^!^ZCnvxxxxxccnZY//Qt*%$@OX.               ",
"                 .X+$$%>p_WCNZx<$$$OXX@$$;aZZNZ^!j,$$$$yK^ZWGMvvxxxxxccnSI)/Ui-%$#OXX .             ",
"                 .OO@$%>d_ZCC^b1$$@+OO@$$>zQZZJZ^Z8&$$<b^)YGMnvxxxxxxcbnNY!/Wf;%$#Oo X              ",
"                 XX@$%%<kQWGCYC4$$$@@@$$$2M^ZCNZZZx,$$iZ^^ZVbvvxxzzzxxvnSZ_Q`l;%$#+X..              ",
"                XXXO@$%<zW^CnYWp>$$$$$$$&uZQTBNBZ!^8$2bZZZCNnvxczzkzxcznBZQ_/x;%$#Oo.               ",
"                  oO#$%<x/^ZNZZZr&$$$$$$9C_TGMnSZZZj,iZYKCNncxcxzzzzxccnCZ^^/k;%$#+X...             ",
"                XXX+$$$>k)^YNCY!Ju<;$&,uC^ZZCnnnCZZ!ibZCVNnvxxxxzzzzxcAnCZQ_Yd=%$#OX.               ",
"                 .X+#$%;s/^UFnCP^^CjahCZZWICMnvnNVCCZKJCMAvvccxxzzlxxxvnCIW/Wd*%$@OXX .             ",
"                ..XO@$%=u/^WCnNFZ_^WW^Q^!ZCnAvvvbbNCCCnNnvvlxxxxzzxxxxvnBY)/Ua%%$#OXX               ",
"                 .XO@$%*w`)^ZNnVY!Z_W^^YZCMnvvzAcbbNNnnnvvxxzzzzzzxxxcvBZZ`)/r%%$+OXX               ",
"                 .Xo+$%*4`/^PCnnDZZZTWZJCnnvvxxcxbvvvvbcxxxxxzzzzxxxccnMZ^_^W2%%$+XX                ",
"                  .o+$$%>J!!!FNvbnVVVCVnnnbxxlccxxcxAxccxxzzzzzzzzxxxAnNU!!/A;%%#OO                 ",
"                . .oO#$%*h`^^YNnxbnbnnbbAxxxxxxzxxxxxccxxxzzzzzzxxzxzvnZT^//p%%$@OXXX               ",
"                 ..XO@$$%q!/^ZCnbcvcvvvcxxxxxzzzxxxxxxxxxzzzzkzzxxxxxnMGW^^Y4%$$@OX X               ",
"                  .Xo+$$%>Z))^ZNbvccccccxxxxxxxzxxxxzzxxxzzzzzzzxxcxvnSI^^_k:%$#OOX                 ",
"                  ..oO#$%*a//^YFNvxxvxxxzzzzzzzkxzzzzzzzzzzkzzzzxcxxnnGW^^)w*%$@OXXX                ",
"                   .Xo@$$%4D//^YCnvvzxxxzxzzzzzzxxzzkzzzzzzzzzzzxcxbnBY)^/n,%$$+oX                  ",
"                   ..oO#$$*iT^^UCNnvxxzxzkzzzzzzzzzzzzzzzzzzzzzzxccnNGZ_W)w;$$#OXXX                 ",
"                  . .XO+$$%2c^^WZCbvxxxxzzzzzzzzzzkzzzzzzzzzzzzxxvbCCZ^^)v>%$$+OX                   ",
"                   ...oO#$%*wSQ^WJCnnvxxcxxxxxxzzzzzzzzzxxxxzzzvvvMMZW^^J5=$$+OXXX                  ",
"                    ..XoO#$$:pY^^ZZMnnvxcclxxxzzzzzzxzzzxxxxcxvvvMNZW`QTw;$$#OoX                    ",
"                      .Xo@$$$2jQ`^ZCCnnbvxxxxxzxzzzzzxzzxxxxcvvnMZZT^__p>$$$+OX.X                   ",
"                     ..Xoo@$$$5xW`W!ZCNnnvcAxxxzzxxxclxcxvxvAnMSBZQ^^Qj<$$$+OoX                     ",
"                        XOO@$$&5xW)^ZYZCMnnbcbcbxxxxxxxvcbcbVnCFY^_W^j2$$$@OoXX                     ",
"                       . XOO@$$&4kY^^)WYZFCnnbnnvvbbAnvnnnNCCZYW^^QWg1$$$@OXX                       ",
"                     .  XXXOO@$$*2iZ)_W^YYZFBCNNnnnNnnMSCCJJY!^^^^Yi>*$$@OoXX                       ",
"                           XOO@$$*>rV^^^^^^!YZZJZCZGJGGGY!Z^!W^^^nw;$$#@OXX .                       ",
"                          XXXoO@$$$;5dJ_^/W/^`!!YYY^^^T/^^^^/)/Ji3-$$$@OOXXXX                       ",
"                             XOO@$$$*>8hY/`//Y!^/_^^T_///^^_)Na6:*$$$@OXX                           ",
"                             XXoO+#$$$$>6aJ`///_`^/^^/``)/Ccy8>*$$$#@OXXX .                         ",
"                            X XXoO+#$$%%**>0pbFJJJJJJMMchy03:*%%$$@+oXX .                           ",
"                            X  X.ooO@$$$$$%%%=,5qrrrww74>-*%%%$$$+OOXXX                             ",
"                                ..XoOO@$$$$%$%%%%%%%%%%%%%$$$$$++OoXX X                             ",
"                                 ...XoOO@#$$$$$%%%%$%%$%%$$$@@+OoXX.X                               ",
"                                 ....XooOOO###$$%$$$$$$$$#@+OOoXXX                                  ",
"                                     ..XXXoOOO++@@@@@@@OOoOoXX.. X                                  ",
"                                    . ....XXXooooooooOoooXX.X. .                                    ",
"                                        ........XXXXXXXXX.... .                                     ",
"                                            .... . .. .  .                                          ",
"                                            .      .   X                                            ",
"                                                                                                    ",
"                                                                                                    ",
"                                                                                                    ",
"                                                                                                    ",
"                                                                                                    ",
"                                                                                                    ",
"                                                                                                    ",
"                                                                                                    ",
"                                                                                                    ",
"                                                                                                    ",
"                                                                                                    ",
"                                                                                                    ",
"                                                                                                    ",
"                                                                                                    ",
"                                                                                                    "
};
